<svg width="17" height="16" viewBox="0 0 17 16" fill="none" xmlns="http://www.w3.org/2000/svg">
<path d="M8.8393 12C9.01263 12 9.15596 11.9433 9.2693 11.83C9.38263 11.7167 9.4393 11.5733 9.4393 11.4V8.68H12.1993C12.3593 8.68 12.496 8.62333 12.6093 8.51C12.7226 8.39667 12.7793 8.25333 12.7793 8.08C12.7793 7.90667 12.7226 7.76333 12.6093 7.65C12.496 7.53667 12.3526 7.48 12.1793 7.48H9.4393V4.58C9.4393 4.42 9.38263 4.28333 9.2693 4.17C9.15596 4.05667 9.01263 4 8.8393 4C8.66596 4 8.52263 4.05667 8.4093 4.17C8.29596 4.28333 8.2393 4.42667 8.2393 4.6V7.48H5.3593C5.1993 7.48 5.06263 7.53667 4.9493 7.65C4.83596 7.76333 4.7793 7.90667 4.7793 8.08C4.7793 8.25333 4.83596 8.39667 4.9493 8.51C5.06263 8.62333 5.20596 8.68 5.3793 8.68H8.2393V11.42C8.2393 11.58 8.29596 11.7167 8.4093 11.83C8.52263 11.9433 8.66596 12 8.8393 12ZM8.7793 16C7.64596 16 6.59263 15.7967 5.6193 15.39C4.64596 14.9833 3.7993 14.42 3.0793 13.7C2.3593 12.98 1.79596 12.1333 1.3893 11.16C0.98263 10.1867 0.779297 9.13333 0.779297 8C0.779297 6.88 0.98263 5.83333 1.3893 4.86C1.79596 3.88667 2.3593 3.04 3.0793 2.32C3.7993 1.6 4.64596 1.03333 5.6193 0.62C6.59263 0.206667 7.64596 0 8.7793 0C9.8993 0 10.946 0.206667 11.9193 0.62C12.8926 1.03333 13.7393 1.6 14.4593 2.32C15.1793 3.04 15.746 3.88667 16.1593 4.86C16.5726 5.83333 16.7793 6.88 16.7793 8C16.7793 9.13333 16.5726 10.1867 16.1593 11.16C15.746 12.1333 15.1793 12.98 14.4593 13.7C13.7393 14.42 12.8926 14.9833 11.9193 15.39C10.946 15.7967 9.8993 16 8.7793 16ZM8.7793 14.8C10.646 14.8 12.246 14.1333 13.5793 12.8C14.9126 11.4667 15.5793 9.86667 15.5793 8C15.5793 6.13333 14.9126 4.53333 13.5793 3.2C12.246 1.86667 10.646 1.2 8.7793 1.2C6.91263 1.2 5.31263 1.86667 3.9793 3.2C2.64596 4.53333 1.9793 6.13333 1.9793 8C1.9793 9.86667 2.64596 11.4667 3.9793 12.8C5.31263 14.1333 6.91263 14.8 8.7793 14.8Z" fill="white"/>
</svg>
