<svg width="12" height="12" viewBox="0 0 12 12" fill="none" xmlns="http://www.w3.org/2000/svg">
<path d="M6.45269 0.173267L11.7628 5.48231C11.8484 5.56864 11.9095 5.65117 11.9461 5.7299C11.982 5.80932 12 5.89219 12 5.97852C12 6.06484 11.982 6.14771 11.9461 6.22713C11.9095 6.30586 11.8484 6.38839 11.7628 6.47472L6.41022 11.849C6.32389 11.9354 6.22686 11.9785 6.11913 11.9785C6.0107 11.9785 5.90642 11.9209 5.80628 11.8055C5.71927 11.7047 5.67956 11.5966 5.68715 11.4813C5.69406 11.3666 5.74068 11.2662 5.827 11.1798L10.5963 6.43225H0.431974C0.331145 6.43225 0.234116 6.38528 0.140883 6.29136C0.0469608 6.19813 -9.53674e-07 6.09385 -9.53674e-07 5.97852C-9.53674e-07 5.86318 0.0469608 5.76236 0.140883 5.67603C0.234116 5.5897 0.331145 5.54654 0.431974 5.54654H10.5963L5.80628 0.75545C5.71927 0.669125 5.67576 0.579345 5.67576 0.486113C5.67576 0.39219 5.72617 0.287909 5.827 0.173267C5.92783 0.0724392 6.03211 0.0220242 6.13985 0.0220242C6.24827 0.0220242 6.35256 0.0724392 6.45269 0.173267Z" fill="#757575"/>
</svg>
