<svg width="27" height="16" viewBox="0 0 27 16" fill="none" xmlns="http://www.w3.org/2000/svg">
<path d="M0.782278 16C0.584173 16 0.403968 15.9188 0.241665 15.7565C0.0805549 15.5954 0 15.4152 0 15.2159V8.76438C0 8.39084 0.124114 7.94928 0.372343 7.4397C0.621765 6.93011 0.994704 6.5512 1.49116 6.30298V2.94652C1.49116 2.12665 1.77698 1.4303 2.34862 0.857463C2.92146 0.285821 3.61781 0 4.43768 0H11.002C11.4997 0 11.9347 0.105617 12.307 0.316849C12.6793 0.528082 12.9777 0.807936 13.2021 1.15641C13.4264 0.807936 13.7307 0.528082 14.115 0.316849C14.5005 0.105617 14.942 0 15.4397 0H21.9288C22.7487 0 23.451 0.285821 24.0358 0.857463C24.6206 1.4303 24.913 2.12665 24.913 2.94652V6.30298C25.4094 6.5512 25.7824 6.93011 26.0318 7.4397C26.28 7.94928 26.4041 8.39084 26.4041 8.76438V15.2159C26.4041 15.4152 26.3236 15.5954 26.1625 15.7565C26.0001 15.9188 25.8319 16 25.6576 16C25.4595 16 25.2793 15.9188 25.117 15.7565C24.9559 15.5954 24.8754 15.4152 24.8754 15.2159V13.1269H1.52875V15.2159C1.52875 15.4152 1.4482 15.5954 1.28709 15.7565C1.12479 15.9188 0.956515 16 0.782278 16ZM13.9861 5.81786H23.42V2.98411C23.42 2.56165 23.2774 2.21377 22.9922 1.94048C22.7058 1.666 22.3513 1.52875 21.9288 1.52875H15.4397C15.0172 1.52875 14.6694 1.666 14.3961 1.94048C14.1228 2.21377 13.9861 2.56165 13.9861 2.98411V5.81786ZM2.98411 5.81786H12.418V2.94652C12.418 2.54912 12.2879 2.21377 12.0277 1.94048C11.7664 1.666 11.4245 1.52875 11.002 1.52875H4.43768C4.01522 1.52875 3.66734 1.666 3.39405 1.94048C3.12076 2.21377 2.98411 2.56165 2.98411 2.98411V5.81786ZM1.52875 11.5981H24.8754V8.76438C24.8754 8.34191 24.7387 8 24.4654 7.73864C24.1909 7.47729 23.855 7.34661 23.4576 7.34661H2.98411C2.56165 7.34661 2.21317 7.47729 1.93869 7.73864C1.6654 8 1.52875 8.32938 1.52875 8.72678V11.5981ZM24.8754 11.5981H1.52875C1.52875 11.5981 1.6654 11.5981 1.93869 11.5981C2.21317 11.5981 2.56165 11.5981 2.98411 11.5981H23.4576C23.8801 11.5981 24.222 11.5981 24.4833 11.5981C24.7447 11.5981 24.8754 11.5981 24.8754 11.5981Z" fill="black"/>
</svg>
