<svg width="19" height="17" viewBox="0 0 19 17" fill="none" xmlns="http://www.w3.org/2000/svg">
<mask id="path-1-inside-1_4582_17126" fill="white">
<path d="M12.1797 6.30176C12.1797 9.61547 9.4934 12.3018 6.17969 12.3018C5.04998 12.3018 3.9932 11.9895 3.09092 11.4467C3.01363 11.4002 2.92001 11.3883 2.83444 11.4168L0.748898 12.112C0.51437 12.1902 0.291248 11.9671 0.369424 11.7325L1.0646 9.64701C1.09313 9.56144 1.08126 9.46782 1.03476 9.39053C0.491904 8.48825 0.179688 7.43146 0.179688 6.30176C0.179688 2.98805 2.86598 0.301758 6.17969 0.301758C9.4934 0.301758 12.1797 2.98805 12.1797 6.30176Z"/>
</mask>
<path d="M1.03476 9.39053L0.177885 9.90606L1.03476 9.39053ZM0.748898 12.112L1.06513 13.0607L0.748898 12.112ZM0.369424 11.7325L1.31811 12.0488L0.369424 11.7325ZM3.09092 11.4467L2.57538 12.3036L3.09092 11.4467ZM2.83444 11.4168L3.15067 12.3655L2.83444 11.4168ZM6.17969 13.3018C10.0457 13.3018 13.1797 10.1678 13.1797 6.30176H11.1797C11.1797 9.06318 8.94111 11.3018 6.17969 11.3018V13.3018ZM2.57538 12.3036C3.62896 12.9374 4.8633 13.3018 6.17969 13.3018V11.3018C5.23666 11.3018 4.35744 11.0416 3.60645 10.5898L2.57538 12.3036ZM2.51821 10.4682L0.43267 11.1633L1.06513 13.0607L3.15067 12.3655L2.51821 10.4682ZM1.31811 12.0488L2.01329 9.96323L0.115921 9.33078L-0.579259 11.4163L1.31811 12.0488ZM-0.820312 6.30176C-0.820312 7.61814 -0.455991 8.85249 0.177885 9.90606L1.89163 8.875C1.4398 8.12401 1.17969 7.24479 1.17969 6.30176H-0.820312ZM6.17969 -0.698242C2.31369 -0.698242 -0.820312 2.43576 -0.820312 6.30176H1.17969C1.17969 3.54033 3.41826 1.30176 6.17969 1.30176V-0.698242ZM13.1797 6.30176C13.1797 2.43576 10.0457 -0.698242 6.17969 -0.698242V1.30176C8.94111 1.30176 11.1797 3.54033 11.1797 6.30176H13.1797ZM2.01329 9.96323C2.13825 9.58836 2.08222 9.19178 1.89163 8.875L0.177885 9.90606C0.0802931 9.74385 0.0480091 9.53452 0.115921 9.33078L2.01329 9.96323ZM0.43267 11.1633C0.9799 10.9809 1.50052 11.5015 1.31811 12.0488L-0.579259 11.4163C-0.918021 12.4326 0.0488409 13.3995 1.06513 13.0607L0.43267 11.1633ZM3.60645 10.5898C3.28966 10.3992 2.89308 10.3432 2.51821 10.4682L3.15067 12.3655C2.94693 12.4334 2.73759 12.4012 2.57538 12.3036L3.60645 10.5898Z" fill="white" mask="url(#path-1-inside-1_4582_17126)"/>
<path d="M6.51953 12.2914C7.34026 14.6272 9.56547 16.3018 12.1818 16.3018C13.3285 16.3018 14.4001 15.9801 15.3111 15.422C15.3624 15.3906 15.4249 15.3828 15.4819 15.4018L17.8023 16.1753C17.9587 16.2274 18.1074 16.0786 18.0553 15.9223L17.281 13.5993C17.2624 13.5437 17.2692 13.4829 17.2994 13.4328L17.3938 13.2762C17.8953 12.3995 18.1818 11.3841 18.1818 10.3018C18.1818 6.98806 15.4955 4.30176 12.1818 4.30176L11.9568 4.3059L11.8439 4.3119" stroke="white" stroke-linecap="round" stroke-linejoin="round"/>
</svg>
