<svg width="16" height="16" viewBox="0 0 16 16" fill="none" xmlns="http://www.w3.org/2000/svg">
<mask id="path-1-inside-1_3659_18652" fill="white">
<path d="M4.12972 0H1.68421C0.754047 0 0 0.754047 0 1.68421C0 9.5906 6.4094 16 14.3158 16C15.246 16 16 15.246 16 14.3158V11.8703C16 11.1433 15.5574 10.4896 14.8825 10.2197L12.5397 9.28253C11.9334 9.04002 11.2429 9.1494 10.7413 9.56743L10.1361 10.0718C9.42973 10.6604 8.39107 10.6133 7.74091 9.96313L6.03687 8.25909C5.38671 7.60893 5.33959 6.57027 5.92822 5.86391L6.43257 5.25869C6.8506 4.75706 6.95998 4.06662 6.71747 3.46034L5.78034 1.11753C5.51037 0.442579 4.85666 0 4.12972 0Z"/>
</mask>
<path d="M5.78034 1.11753L4.85187 1.48892L5.78034 1.11753ZM6.71747 3.46034L7.64595 3.08895V3.08895L6.71747 3.46034ZM6.43257 5.25869L7.20079 5.89888L7.20079 5.89888L6.43257 5.25869ZM5.92822 5.86391L6.69644 6.5041L5.92822 5.86391ZM6.03687 8.25909L5.32976 8.9662L6.03687 8.25909ZM7.74091 9.96313L8.44801 9.25602V9.25602L7.74091 9.96313ZM10.1361 10.0718L9.49591 9.30356L10.1361 10.0718ZM10.7413 9.56743L11.3815 10.3357L11.3815 10.3357L10.7413 9.56743ZM12.5397 9.28253L12.1683 10.211L12.5397 9.28253ZM14.8825 10.2197L15.2539 9.29118L14.8825 10.2197ZM1.68421 1H4.12972V-1H1.68421V1ZM4.85187 1.48892L5.78899 3.83173L7.64595 3.08895L6.70882 0.746137L4.85187 1.48892ZM5.66435 4.61851L5.16 5.22373L6.69644 6.5041L7.20079 5.89888L5.66435 4.61851ZM5.32976 8.9662L7.0338 10.6702L8.44801 9.25602L6.74398 7.55199L5.32976 8.9662ZM10.7763 10.84L11.3815 10.3357L10.1011 8.79921L9.49591 9.30356L10.7763 10.84ZM12.1683 10.211L14.5111 11.1481L15.2539 9.29118L12.9111 8.35406L12.1683 10.211ZM15 11.8703V14.3158H17V11.8703H15ZM14.3158 15C6.96168 15 1 9.03832 1 1.68421H-1C-1 10.1429 5.85711 17 14.3158 17V15ZM15 14.3158C15 14.6937 14.6937 15 14.3158 15V17C15.7982 17 17 15.7982 17 14.3158H15ZM14.5111 11.1481C14.8064 11.2662 15 11.5522 15 11.8703H17C17 10.7344 16.3085 9.71302 15.2539 9.29118L14.5111 11.1481ZM11.3815 10.3357C11.601 10.1528 11.903 10.1049 12.1683 10.211L12.9111 8.35406C11.9637 7.97513 10.8849 8.14603 10.1011 8.79921L11.3815 10.3357ZM7.0338 10.6702C8.04968 11.6861 9.67259 11.7597 10.7763 10.84L9.49591 9.30356C9.18687 9.56108 8.73246 9.54047 8.44801 9.25602L7.0338 10.6702ZM5.16 5.22373C4.24026 6.32741 4.31388 7.95032 5.32976 8.9662L6.74398 7.55199C6.45953 7.26754 6.43892 6.81313 6.69644 6.5041L5.16 5.22373ZM5.78899 3.83173C5.89509 4.09698 5.84724 4.39904 5.66435 4.61851L7.20079 5.89888C7.85397 5.11507 8.02487 4.03626 7.64595 3.08895L5.78899 3.83173ZM4.12972 1C4.44776 1 4.73375 1.19363 4.85187 1.48892L6.70882 0.746137C6.28698 -0.30847 5.26557 -1 4.12972 -1V1ZM1.68421 -1C0.201762 -1 -1 0.201762 -1 1.68421H1C1 1.30633 1.30633 1 1.68421 1V-1Z" fill="black" mask="url(#path-1-inside-1_3659_18652)"/>
</svg>
