<svg width="26" height="21" viewBox="0 0 26 21" fill="none" xmlns="http://www.w3.org/2000/svg">
<path fill-rule="evenodd" clip-rule="evenodd" d="M22.913 4.13043H20.535C20.0852 4.13043 19.6866 3.84348 19.5447 3.4167L18.977 1.71374C18.8351 1.28696 18.4365 1 17.9868 1H12.1871C11.7374 1 11.3388 1.28696 11.1969 1.71374L10.6292 3.4167C10.4873 3.84348 10.0887 4.13043 9.63896 4.13043H3.08696C1.93391 4.13043 1 5.06435 1 6.21739V17.6957C1 18.8487 1.93391 19.7826 3.08696 19.7826H22.913C24.0661 19.7826 25 18.8487 25 17.6957V6.21739C25 5.06435 24.0661 4.13043 22.913 4.13043Z" stroke="#00509D" stroke-linecap="round" stroke-linejoin="round"/>
<path fill-rule="evenodd" clip-rule="evenodd" d="M20.8259 11.9559C20.8259 15.126 18.2569 17.6951 15.0868 17.6951C11.9167 17.6951 9.34766 15.126 9.34766 11.9559C9.34766 8.78584 11.9167 6.2168 15.0868 6.2168C18.2569 6.2168 20.8259 8.78584 20.8259 11.9559Z" stroke="#00509D" stroke-linecap="round" stroke-linejoin="round"/>
<path fill-rule="evenodd" clip-rule="evenodd" d="M18.7379 11.9569C18.7379 13.9739 17.1028 15.609 15.0858 15.609C13.0687 15.609 11.4336 13.9739 11.4336 11.9569C11.4336 9.93982 13.0687 8.30469 15.0858 8.30469C17.1028 8.30469 18.7379 9.93982 18.7379 11.9569Z" stroke="#00509D" stroke-linecap="round" stroke-linejoin="round"/>
<path d="M3.08789 2.04395H5.17485" stroke="#00509D" stroke-linecap="round" stroke-linejoin="round"/>
<path d="M3.08789 6.2168H5.17485" stroke="#00509D" stroke-linecap="round" stroke-linejoin="round"/>
</svg>
