<svg width="16" height="16" viewBox="0 0 16 16" fill="none" xmlns="http://www.w3.org/2000/svg">
<path d="M10.0686 6H5.93137C5.32555 6 5.02265 6 4.88238 6.1198C4.76068 6.22374 4.69609 6.37967 4.70865 6.53923C4.72312 6.72312 4.93731 6.93731 5.36568 7.36568L7.43431 9.43431C7.63232 9.63232 7.73133 9.73133 7.84549 9.76842C7.94591 9.80105 8.05409 9.80105 8.15451 9.76842C8.26867 9.73133 8.36768 9.63232 8.56568 9.43432L8.56569 9.43431L10.6343 7.36569C11.0627 6.93731 11.2769 6.72312 11.2914 6.53923C11.3039 6.37967 11.2393 6.22374 11.1176 6.1198C10.9774 6 10.6744 6 10.0686 6Z" fill="#2D2D2D" stroke="#2D2D2D" stroke-linecap="round" stroke-linejoin="round"/>
</svg>
