<svg width="11" height="6" viewBox="0 0 11 6" fill="none" xmlns="http://www.w3.org/2000/svg">
<mask id="path-1-inside-1_3763_20504" fill="white">
<path d="M0.515624 0.666992L5.51562 5.66699L10.5156 0.666992"/>
</mask>
<path d="M0.09136 1.09126C-0.142955 0.856942 -0.142955 0.477043 0.09136 0.242728C0.325675 0.00841341 0.705574 0.00841339 0.939888 0.242728L0.09136 1.09126ZM5.51562 5.66699L5.93989 6.09126C5.70557 6.32557 5.32568 6.32557 5.09136 6.09126L5.51562 5.66699ZM10.0914 0.242728C10.3257 0.00841351 10.7056 0.00841353 10.9399 0.242728C11.1742 0.477043 11.1742 0.856942 10.9399 1.09126L10.0914 0.242728ZM0.939888 0.242728L5.93989 5.24273L5.09136 6.09126L0.09136 1.09126L0.939888 0.242728ZM5.09136 5.24273L10.0914 0.242728L10.9399 1.09126L5.93989 6.09126L5.09136 5.24273Z" fill="black" mask="url(#path-1-inside-1_3763_20504)"/>
</svg>
