<svg width="26" height="26" viewBox="0 0 26 26" fill="none" xmlns="http://www.w3.org/2000/svg">
<path d="M10.9152 11.9564L5.60806 15.8079C4.78997 16.4027 5.21049 17.6956 6.22162 17.6956H19.7827C20.7938 17.6956 21.2143 16.4027 20.3962 15.8079L14.0456 11.4347C13.6648 11.0538 13.5239 11.0434 13.5239 10.3912C13.5239 8.8907 15.6108 8.76026 15.6108 7.26078C15.6108 6.10774 14.6769 5.17383 13.5239 5.17383C12.3708 5.17383 11.4369 6.10774 11.4369 7.26078" stroke="black" stroke-linecap="round" strokeLinejoin="round"/>
<path fillRule="evenodd" clipRule="evenodd" d="M25 13C25 19.6271 19.6271 25 13 25C6.37287 25 1 19.6271 1 13C1 6.37287 6.37287 1 13 1C19.6271 1 25 6.37287 25 13Z" stroke="black" stroke-linecap="round" strokeLinejoin="round"/>
</svg>
