<svg width="12" height="13" viewBox="0 0 12 13" fill="none" xmlns="http://www.w3.org/2000/svg">
<path d="M4.90449 6.21701H6.45237V1.88495C6.45237 1.66627 6.37804 1.48261 6.2294 1.33397C6.08028 1.18485 5.89663 1.11029 5.67843 1.11029C5.46023 1.11029 5.27657 1.18485 5.12745 1.33397C4.97881 1.48261 4.90449 1.66627 4.90449 1.88495V6.21701ZM1.48 8.34588H9.87685V7.19962C9.87685 7.10052 9.84208 7.01382 9.77252 6.93949C9.70296 6.8647 9.61864 6.8273 9.51954 6.8273H1.85232C1.74322 6.8273 1.65389 6.8647 1.58433 6.93949C1.51478 7.01382 1.48 7.10052 1.48 7.19962V8.34588ZM1.01835 11.8897H2.50692V10.4454C2.50692 10.3659 2.53931 10.2939 2.6041 10.2296C2.66842 10.1648 2.74036 10.1324 2.81992 10.1324C2.89948 10.1324 2.96904 10.1648 3.02859 10.2296C3.08814 10.2939 3.11792 10.3659 3.11792 10.4454V11.8897H5.38043V10.4454C5.38043 10.3659 5.4102 10.2939 5.46976 10.2296C5.52931 10.1648 5.59886 10.1324 5.67843 10.1324C5.75799 10.1324 5.82993 10.1648 5.89424 10.2296C5.95904 10.2939 5.99143 10.3659 5.99143 10.4454V11.8897H8.23893V10.4454C8.23893 10.3659 8.27133 10.2939 8.33612 10.2296C8.40044 10.1648 8.46737 10.1324 8.53693 10.1324C8.61649 10.1324 8.68843 10.1648 8.75275 10.2296C8.81754 10.2939 8.84994 10.3659 8.84994 10.4454V11.8897H10.3385C10.4676 11.8897 10.5693 11.8425 10.6436 11.7482C10.718 11.6539 10.7354 11.5472 10.6958 11.4281L9.98119 8.95688H1.37566L0.661037 11.4281C0.621494 11.5472 0.638883 11.6539 0.713205 11.7482C0.787526 11.8425 0.889241 11.8897 1.01835 11.8897ZM10.4428 12.5H0.899007C0.611251 12.5 0.375663 12.3833 0.192242 12.1498C0.00882143 11.9169 -0.0433462 11.6515 0.0357391 11.3537L0.869708 8.55455V7.1253C0.869708 6.86708 0.956416 6.65126 1.12983 6.47785C1.30372 6.30395 1.51478 6.21701 1.76299 6.21701H4.29348V1.88495C4.29348 1.49762 4.42997 1.17008 4.70296 0.902335C4.97595 0.634112 5.3011 0.5 5.67843 0.5C6.06528 0.5 6.3952 0.634112 6.66818 0.902335C6.94117 1.17008 7.07766 1.49762 7.07766 1.88495L7.06337 6.21701H9.59386C9.84208 6.21701 10.0531 6.30395 10.227 6.47785C10.4004 6.65126 10.4871 6.86708 10.4871 7.1253V8.55455L11.3211 11.383C11.3707 11.6713 11.3085 11.9295 11.1346 12.1577C10.9612 12.3859 10.7306 12.5 10.4428 12.5ZM9.87685 6.8273H1.48C1.48 6.8273 1.51478 6.8273 1.58433 6.8273C1.65389 6.8273 1.74322 6.8273 1.85232 6.8273H9.51954C9.61864 6.8273 9.70296 6.8273 9.77252 6.8273C9.84208 6.8273 9.87685 6.8273 9.87685 6.8273ZM6.45237 6.21701H4.90449C4.90449 6.21701 4.97881 6.21701 5.12745 6.21701C5.27657 6.21701 5.46023 6.21701 5.67843 6.21701C5.89663 6.21701 6.08028 6.21701 6.2294 6.21701C6.37804 6.21701 6.45237 6.21701 6.45237 6.21701Z" fill="black"/>
</svg>
