<svg width="16" height="17" viewBox="0 0 16 17" fill="none" xmlns="http://www.w3.org/2000/svg">
<path d="M10.8702 12.0482C10.9606 12.1538 11.0698 12.2026 11.1978 12.1946C11.3258 12.1874 11.4426 12.131 11.5482 12.0254C11.669 11.9047 11.7294 11.7879 11.7294 11.6751C11.7294 11.5622 11.669 11.453 11.5482 11.3475L8.47512 8.29607V4.49946C8.47512 4.3946 8.42956 4.29697 8.33844 4.20658C8.24877 4.11618 8.13595 4.07098 8 4.07098C7.89442 4.07098 7.79281 4.1198 7.69519 4.21742C7.59684 4.31577 7.54766 4.41738 7.54766 4.52224V8.40997C7.54766 8.48518 7.56285 8.564 7.59322 8.64644C7.62359 8.7296 7.67638 8.80879 7.75159 8.884L10.8702 12.0482ZM8 16.5C6.90007 16.5 5.86052 16.2892 4.88136 15.8676C3.90219 15.4453 3.05464 14.8725 2.33871 14.1494C1.6235 13.4262 1.05473 12.579 0.632407 11.6078C0.210802 10.6359 0 9.59993 0 8.5C0 7.40007 0.210802 6.36052 0.632407 5.38136C1.05473 4.40219 1.62748 3.55464 2.35064 2.83871C3.07381 2.1235 3.92099 1.55473 4.8922 1.13241C5.86414 0.710802 6.90007 0.5 8 0.5C9.09993 0.5 10.1395 0.710802 11.1186 1.13241C12.0978 1.55473 12.9454 2.12748 13.6613 2.85064C14.3765 3.57381 14.9453 4.42099 15.3676 5.3922C15.7892 6.36414 16 7.40007 16 8.5C16 9.59993 15.7892 10.6395 15.3676 11.6186C14.9453 12.5978 14.3725 13.4454 13.6494 14.1613C12.9262 14.8765 12.079 15.4453 11.1078 15.8676C10.1359 16.2892 9.09993 16.5 8 16.5ZM8 15.5736C9.95833 15.5736 11.627 14.8845 13.0061 13.5061C14.3845 12.127 15.0736 10.4583 15.0736 8.5C15.0736 6.54167 14.3845 4.87297 13.0061 3.4939C11.627 2.11555 9.95833 1.42637 8 1.42637C6.04167 1.42637 4.37297 2.11555 2.9939 3.4939C1.61555 4.87297 0.926373 6.54167 0.926373 8.5C0.926373 10.4583 1.61555 12.127 2.9939 13.5061C4.37297 14.8845 6.04167 15.5736 8 15.5736Z" fill="black"/>
</svg>
