<svg width="14" height="12" viewBox="0 0 14 12" fill="none" xmlns="http://www.w3.org/2000/svg">
<path d="M1 5.99996V7.46663C1 8.58673 1 9.14678 1.21799 9.57461C1.40973 9.95093 1.71569 10.2569 2.09202 10.4486C2.51984 10.6666 3.07989 10.6666 4.2 10.6666H9.8C10.9201 10.6666 11.4802 10.6666 11.908 10.4486C12.2843 10.2569 12.5903 9.95093 12.782 9.57461C13 9.14678 13 8.58673 13 7.46663V5.99996M1 5.99996H3.44968C3.7758 5.99996 3.93886 5.99996 4.09231 6.0368C4.22836 6.06946 4.35842 6.12333 4.47771 6.19644C4.61227 6.27889 4.72757 6.3942 4.95817 6.6248L5.04183 6.70845C5.27243 6.93906 5.38773 7.05436 5.52229 7.13681C5.64158 7.20992 5.77164 7.26379 5.90769 7.29645C6.06114 7.33329 6.2242 7.33329 6.55032 7.33329H7.44968C7.7758 7.33329 7.93886 7.33329 8.09231 7.29645C8.22836 7.26379 8.35842 7.20992 8.47771 7.13681C8.61227 7.05436 8.72757 6.93906 8.95817 6.70845L9.04183 6.6248C9.27243 6.3942 9.38773 6.27889 9.52229 6.19644C9.64158 6.12333 9.77164 6.06946 9.90769 6.0368C10.0611 5.99996 10.2242 5.99996 10.5503 5.99996H13M1 5.99996L2.55093 2.55346C2.85835 1.87029 3.01206 1.52871 3.25351 1.27833C3.46694 1.057 3.72852 0.887865 4.01794 0.784058C4.34534 0.666626 4.71992 0.666626 5.46907 0.666626H8.53092C9.28008 0.666626 9.65466 0.666626 9.98206 0.784058C10.2715 0.887865 10.5331 1.057 10.7465 1.27833C10.9879 1.52871 11.1416 1.87029 11.4491 2.55346L13 5.99996" stroke="#3B3B3B" stroke-linecap="round" stroke-linejoin="round"/>
</svg>
