<svg width="16" height="16" viewBox="0 0 16 16" fill="none" xmlns="http://www.w3.org/2000/svg">
<path d="M12 8.00004H12.0067M8.00004 8.00004H8.00671M4.00004 8.00004H4.00671M8.66671 8.00004C8.66671 8.36823 8.36823 8.66671 8.00004 8.66671C7.63185 8.66671 7.33337 8.36823 7.33337 8.00004C7.33337 7.63185 7.63185 7.33337 8.00004 7.33337C8.36823 7.33337 8.66671 7.63185 8.66671 8.00004ZM12.6667 8.00004C12.6667 8.36823 12.3682 8.66671 12 8.66671C11.6319 8.66671 11.3334 8.36823 11.3334 8.00004C11.3334 7.63185 11.6319 7.33337 12 7.33337C12.3682 7.33337 12.6667 7.63185 12.6667 8.00004ZM4.66671 8.00004C4.66671 8.36823 4.36823 8.66671 4.00004 8.66671C3.63185 8.66671 3.33337 8.36823 3.33337 8.00004C3.33337 7.63185 3.63185 7.33337 4.00004 7.33337C4.36823 7.33337 4.66671 7.63185 4.66671 8.00004Z" stroke="#19292F" stroke-linecap="round" stroke-linejoin="round"/>
</svg>
