<svg width="26" height="28" viewBox="0 0 26 28" fill="none" xmlns="http://www.w3.org/2000/svg">
<path fill-rule="evenodd" clip-rule="evenodd" d="M7.76458 4.61471C7.76458 5.83489 6.7763 6.82318 5.55612 6.82318C4.33594 6.82318 3.34766 5.83489 3.34766 4.61471C3.34766 3.39454 4.33594 2.40625 5.55612 2.40625C6.7763 2.40625 7.76458 3.39454 7.76458 4.61471Z" stroke="black" stroke-linecap="round" stroke-linejoin="round"/>
<path fill-rule="evenodd" clip-rule="evenodd" d="M23.2236 4.61471C23.2236 5.83489 22.2353 6.82318 21.0151 6.82318C19.7949 6.82318 18.8066 5.83489 18.8066 4.61471C18.8066 3.39454 19.7949 2.40625 21.0151 2.40625C22.2353 2.40625 23.2236 3.39454 23.2236 4.61471Z" stroke="black" stroke-linecap="round" stroke-linejoin="round"/>
<path fill-rule="evenodd" clip-rule="evenodd" d="M15.399 26.6987L16.046 17.9388H16.4656C17.1525 17.9388 17.6836 17.2785 17.5986 16.532L16.8665 10.1187C16.724 8.86646 15.7523 7.92676 14.6006 7.92676H13.1905H11.7804C10.6287 7.92676 9.65695 8.86646 9.5145 10.1187L8.78239 16.532C8.69737 17.2785 9.2285 17.9388 9.91534 17.9388H10.3349L10.982 26.6987H15.399Z" stroke="black" stroke-linecap="round" stroke-linejoin="round"/>
<path fill-rule="evenodd" clip-rule="evenodd" d="M15.3974 3.51022C15.3974 4.7304 14.4091 5.71869 13.1889 5.71869C11.9688 5.71869 10.9805 4.7304 10.9805 3.51022C10.9805 2.29005 11.9688 1.30176 13.1889 1.30176C14.4091 1.30176 15.3974 2.29005 15.3974 3.51022Z" stroke="black" stroke-linecap="round" stroke-linejoin="round"/>
<path d="M7.47541 9.11173C7.29653 9.06535 7.11212 9.03223 6.91888 9.03223H5.55515H4.19253C3.07836 9.03223 2.13976 9.8615 2.00063 10.9668L1.29392 16.6249C1.21111 17.283 1.72568 17.8661 2.38932 17.8661H2.79457L3.34669 25.5957H7.76362L8.18875 19.6472" stroke="black" stroke-linecap="round" stroke-linejoin="round"/>
<path d="M18.373 19.5213L18.807 25.5957H23.2239L23.7761 17.8661H24.1813C24.8461 17.8661 25.3595 17.2842 25.2767 16.6249L24.57 10.9668C24.432 9.8615 23.4923 9.03223 22.3781 9.03223H21.0155H19.6529C19.3945 9.03223 19.1482 9.08081 18.9163 9.16253" stroke="black" stroke-linecap="round" stroke-linejoin="round"/>
</svg>
