<svg width="26" height="26" viewBox="0 0 26 26" fill="none" xmlns="http://www.w3.org/2000/svg">
<path d="M14.8613 8.90625L8.9082 14.8614" stroke="#A4A4A4" strokeLinejoin="round"/>
<path d="M17.0937 11.1387L11.1406 17.0939" stroke="#A4A4A4" strokeLinejoin="round"/>
<path fillRule="evenodd" clipRule="evenodd" d="M2.20641 17.0939C1.59058 16.477 1.58952 15.478 2.20641 14.8611C2.8233 14.2442 3.82337 14.2442 4.43921 14.8611L11.1387 21.5595C11.7555 22.1764 11.7566 23.1754 11.1387 23.7933C10.5218 24.4102 9.52274 24.4092 8.90691 23.7923L2.20641 17.0939Z" stroke="#A4A4A4" strokeLinejoin="round"/>
<path fillRule="evenodd" clipRule="evenodd" d="M2.95016 13.3733C2.33432 12.7564 2.33432 11.7574 2.95016 11.1405C3.5681 10.5236 4.56817 10.5236 5.18401 11.1395L14.8605 20.816C15.4785 21.4329 15.4785 22.4319 14.8626 23.0488C14.2457 23.6657 13.2446 23.6657 12.6267 23.0498L2.95016 13.3733Z" stroke="#A4A4A4" strokeLinejoin="round"/>
<path fillRule="evenodd" clipRule="evenodd" d="M11.14 5.1848C10.5231 4.56791 10.5242 3.56784 11.14 2.95095C11.7579 2.33406 12.758 2.33406 13.3739 2.95095L23.0493 12.6285C23.6673 13.2454 23.6673 14.2444 23.0493 14.8613C22.4345 15.4782 21.4334 15.4782 20.8165 14.8613L11.14 5.1848Z" stroke="#A4A4A4" strokeLinejoin="round"/>
<path fillRule="evenodd" clipRule="evenodd" d="M1.46267 20.8156C0.845778 20.1997 0.845778 19.1997 1.46267 18.5828C2.08061 17.9659 3.08068 17.9659 3.69546 18.5828L7.4189 22.3041C8.03473 22.921 8.03473 23.92 7.4189 24.5369C6.80096 25.1538 5.80088 25.1538 5.18505 24.538L1.46267 20.8156Z" stroke="#A4A4A4" strokeLinejoin="round"/>
<path fillRule="evenodd" clipRule="evenodd" d="M14.8632 4.43921C14.2463 3.82232 14.2463 2.8233 14.8621 2.20641C15.4801 1.58952 16.478 1.59058 17.096 2.20641L23.7933 8.90586C24.4102 9.52274 24.4102 10.5228 23.7933 11.1397C23.1775 11.7566 22.1785 11.7566 21.5605 11.1397L14.8632 4.43921Z" stroke="#A4A4A4" strokeLinejoin="round"/>
<path fillRule="evenodd" clipRule="evenodd" d="M18.5838 3.69507C17.9669 3.07818 17.9669 2.07916 18.5838 1.46227C19.2006 0.845383 20.1986 0.846436 20.8155 1.46227L24.5379 5.18465C25.1537 5.80049 25.1537 6.80161 24.5379 7.41745C23.9231 8.03329 22.9209 8.03329 22.304 7.41745L18.5838 3.69507Z" stroke="#A4A4A4" strokeLinejoin="round"/>
</svg>
