<svg width="14" height="14" viewBox="0 0 14 14" fill="none" xmlns="http://www.w3.org/2000/svg">
<path d="M4.396 13.584C4.20133 13.584 4.01733 13.5493 3.844 13.48C3.67067 13.41 3.52133 13.3057 3.396 13.167L0.417 10.188C0.278333 10.0627 0.174 9.91333 0.104 9.74C0.0346668 9.56667 0 9.38267 0 9.188V4.896C0 4.70133 0.0346668 4.51733 0.104 4.344C0.174 4.17067 0.278333 4.02133 0.417 3.896L3.396 0.917C3.52133 0.778333 3.67067 0.674333 3.844 0.605C4.01733 0.535 4.20133 0.5 4.396 0.5H8.688C8.88267 0.5 9.06667 0.535 9.24 0.605C9.41333 0.674333 9.56267 0.778333 9.688 0.917L12.667 3.896C12.8057 4.02133 12.91 4.17067 12.98 4.344C13.0493 4.51733 13.084 4.70133 13.084 4.896V9.188C13.084 9.38267 13.0493 9.56667 12.98 9.74C12.91 9.91333 12.8057 10.0627 12.667 10.188L9.688 13.167C9.56267 13.3057 9.41333 13.41 9.24 13.48C9.06667 13.5493 8.88267 13.584 8.688 13.584H4.396ZM6.542 10.667C6.68067 10.667 6.80233 10.615 6.907 10.511C7.011 10.4063 7.063 10.2847 7.063 10.146C7.063 10.0073 7.011 9.88233 6.907 9.771C6.80233 9.65967 6.68067 9.604 6.542 9.604C6.40333 9.604 6.28167 9.65633 6.177 9.761C6.073 9.865 6.021 9.99333 6.021 10.146C6.021 10.2847 6.073 10.4063 6.177 10.511C6.28167 10.615 6.40333 10.667 6.542 10.667ZM6.542 8.209C6.65333 8.209 6.754 8.16733 6.844 8.084C6.93467 8.00067 6.98 7.90333 6.98 7.792V3.688C6.98 3.59067 6.93467 3.497 6.844 3.407C6.754 3.31633 6.65333 3.271 6.542 3.271C6.43067 3.271 6.33333 3.31633 6.25 3.407C6.16667 3.497 6.125 3.59067 6.125 3.688V7.792C6.125 7.90333 6.16667 8.00067 6.25 8.084C6.33333 8.16733 6.43067 8.209 6.542 8.209ZM4.167 12.75H8.917L12.25 9.417V4.667L8.917 1.334H4.167L0.834 4.667V9.417L4.167 12.75Z" fill="black"/>
</svg>
