<svg width="16" height="17" viewBox="0 0 16 17" fill="none" xmlns="http://www.w3.org/2000/svg">
<path d="M2.87024 13.3586C3.65342 12.7714 4.45577 12.3306 5.27729 12.0363C6.09808 11.7427 7.00565 11.5959 8 11.5959C8.97916 11.5959 9.88312 11.7427 10.7119 12.0363C11.5406 12.3306 12.3542 12.7714 13.1525 13.3586C13.7253 12.7258 14.1885 12.0026 14.5421 11.1891C14.8965 10.3755 15.0736 9.47916 15.0736 8.5C15.0736 6.52649 14.3881 4.85417 13.0169 3.48305C11.6458 2.11193 9.97351 1.42637 8 1.42637C6.02649 1.42637 4.35417 2.11193 2.98305 3.48305C1.61193 4.85417 0.926373 6.52649 0.926373 8.5C0.926373 9.47916 1.10716 10.3755 1.46875 11.1891C1.83033 12.0026 2.29749 12.7258 2.87024 13.3586ZM8 8.95234C7.24646 8.95234 6.61008 8.69598 6.09085 8.18325C5.57089 7.67125 5.31091 7.03125 5.31091 6.26325C5.31091 5.50972 5.56692 4.87297 6.07892 4.35302C6.59164 3.83306 7.232 3.57308 8 3.57308C8.75354 3.57308 9.38992 3.82945 9.90915 4.34217C10.4291 4.85417 10.6891 5.49453 10.6891 6.26325C10.6891 7.01607 10.4331 7.65245 9.92108 8.17241C9.40836 8.69236 8.768 8.95234 8 8.95234ZM8 16.5C6.88488 16.5 5.84172 16.2892 4.87051 15.8676C3.89858 15.4453 3.05103 14.8765 2.32786 14.1613C1.6047 13.4454 1.03593 12.6014 0.621559 11.6295C0.207186 10.6583 0 9.61512 0 8.5C0 7.38488 0.210802 6.34172 0.632407 5.37051C1.05473 4.39858 1.6235 3.55103 2.33871 2.82786C3.05464 2.1047 3.89858 1.53593 4.87051 1.12156C5.84172 0.707186 6.88488 0.5 8 0.5C9.11512 0.5 10.1583 0.710802 11.1295 1.13241C12.1014 1.55473 12.949 2.1235 13.6721 2.83871C14.3953 3.55464 14.9641 4.39858 15.3784 5.37051C15.7928 6.34172 16 7.38488 16 8.5C16 9.61512 15.7892 10.6583 15.3676 11.6295C14.9453 12.6014 14.3765 13.449 13.6613 14.1721C12.9454 14.8953 12.1014 15.4641 11.1295 15.8784C10.1583 16.2928 9.11512 16.5 8 16.5ZM8 15.5736C8.78319 15.5736 9.57035 15.4341 10.3615 15.1549C11.1526 14.8765 11.8418 14.4885 12.429 13.991C11.857 13.5245 11.1906 13.163 10.4298 12.9062C9.66906 12.6502 8.85912 12.5222 8 12.5222C7.14088 12.5222 6.32732 12.6466 5.55932 12.8954C4.79132 13.1442 4.12854 13.5094 3.57098 13.991C4.15819 14.4885 4.85098 14.8765 5.64936 15.1549C6.44845 15.4341 7.232 15.5736 8 15.5736ZM8 8.02488C8.49754 8.02488 8.91553 7.85566 9.25397 7.51722C9.59313 7.17806 9.76271 6.76007 9.76271 6.26325C9.76271 5.76572 9.59313 5.34737 9.25397 5.0082C8.91553 4.66904 8.49754 4.49946 8 4.49946C7.50246 4.49946 7.08447 4.66904 6.74603 5.0082C6.40687 5.34737 6.23729 5.76572 6.23729 6.26325C6.23729 6.76007 6.40687 7.17806 6.74603 7.51722C7.08447 7.85566 7.50246 8.02488 8 8.02488Z" fill="black"/>
</svg>
