<svg width="30" height="34" viewBox="0 0 30 34" fill="none" xmlns="http://www.w3.org/2000/svg">
<path d="M2.30745 31.4485H9.80619V18.6785H20.2392V31.4485H27.738V12.3769L15.0227 2.75764L2.30745 12.3221V31.4485ZM2.30745 33.6238C1.72841 33.6238 1.22154 33.4064 0.78683 32.9717C0.352121 32.537 0.134766 32.0293 0.134766 31.4485V12.3769C0.134766 12.0152 0.206928 11.6796 0.351252 11.3701C0.495575 11.0623 0.71293 10.7998 1.00332 10.5824L13.7186 1.02054C13.8994 0.874477 14.1081 0.7658 14.3446 0.694508C14.5793 0.621477 14.8054 0.584961 15.0227 0.584961C15.2766 0.584961 15.5122 0.621477 15.7295 0.694508C15.9469 0.7658 16.146 0.874477 16.3268 1.02054L29.0421 10.5824C29.3325 10.7998 29.5498 11.0623 29.6942 11.3701C29.8385 11.6796 29.9106 12.0152 29.9106 12.3769V31.4485C29.9106 32.0293 29.6933 32.537 29.2586 32.9717C28.8239 33.4064 28.317 33.6238 27.738 33.6238H18.0118V20.9085H12.0336V33.6238H2.30745Z" fill="black"/>
</svg>
