<svg width="12" height="12" viewBox="0 0 12 12" fill="none" xmlns="http://www.w3.org/2000/svg">
<path d="M6 9.00041C6.09058 9.00041 6.17247 8.96352 6.24569 8.88976C6.31946 8.81654 6.35634 8.74034 6.35634 8.66115V5.66075C6.35634 5.5821 6.31946 5.50861 6.24569 5.44027C6.17247 5.37302 6.09058 5.33939 6 5.33939C5.92081 5.33939 5.84461 5.376 5.77139 5.44922C5.69763 5.52244 5.66075 5.59864 5.66075 5.67783V8.67824C5.66075 8.75742 5.69763 8.83064 5.77139 8.8979C5.84461 8.96624 5.92081 9.00041 6 9.00041ZM6 4.38997C6.11281 4.38997 6.2118 4.34468 6.29695 4.2541C6.38156 4.16407 6.42386 4.06237 6.42386 3.94902C6.42386 3.8362 6.38156 3.73749 6.29695 3.65288C6.2118 3.56773 6.11281 3.52515 6 3.52515C5.88719 3.52515 5.7882 3.56773 5.70305 3.65288C5.61844 3.73749 5.57614 3.8362 5.57614 3.94902C5.57614 4.06237 5.61844 4.16407 5.70305 4.2541C5.7882 4.34468 5.88719 4.38997 6 4.38997ZM6 12C5.16366 12 4.38129 11.8446 3.65288 11.5338C2.92393 11.2231 2.28827 10.7965 1.7459 10.2541C1.20353 9.71173 0.776949 9.07607 0.466169 8.34712C0.15539 7.61871 0 6.83634 0 6C0 5.16366 0.15539 4.38129 0.466169 3.65288C0.776949 2.92393 1.20353 2.28827 1.7459 1.7459C2.28827 1.20353 2.92393 0.776949 3.65288 0.466169C4.38129 0.15539 5.16366 0 6 0C6.83634 0 7.61871 0.15539 8.34712 0.466169C9.07607 0.776949 9.71173 1.20353 10.2541 1.7459C10.7965 2.28827 11.2231 2.92393 11.5338 3.65288C11.8446 4.38129 12 5.16366 12 6C12 6.83634 11.8446 7.61871 11.5338 8.34712C11.2231 9.07607 10.7965 9.71173 10.2541 10.2541C9.71173 10.7965 9.07607 11.2231 8.34712 11.5338C7.61871 11.8446 6.83634 12 6 12ZM6 11.3052C7.46875 11.3052 8.72027 10.7883 9.75458 9.75458C10.7883 8.72027 11.3052 7.46875 11.3052 6C11.3052 4.53125 10.7883 3.27973 9.75458 2.24542C8.72027 1.21166 7.46875 0.69478 6 0.69478C4.53125 0.69478 3.27973 1.21166 2.24542 2.24542C1.21166 3.27973 0.69478 4.53125 0.69478 6C0.69478 7.46875 1.21166 8.72027 2.24542 9.75458C3.27973 10.7883 4.53125 11.3052 6 11.3052Z" fill="#2A2B2C"/>
</svg>
