<svg width="15" height="14" viewBox="0 0 15 14" fill="none" xmlns="http://www.w3.org/2000/svg">
<path fillRule="evenodd" clipRule="evenodd" d="M2.58313 0C1.54591 0 0.705078 0.840831 0.705078 1.87805C0.705078 2.91527 1.54591 3.7561 2.58313 3.7561C3.62034 3.7561 4.46118 2.91527 4.46118 1.87805C4.46118 0.840831 3.62034 0 2.58313 0ZM1.72947 1.87805C1.72947 1.40659 2.11166 1.02439 2.58313 1.02439C3.05459 1.02439 3.43679 1.40659 3.43679 1.87805C3.43679 2.34951 3.05459 2.73171 2.58313 2.73171C2.11166 2.73171 1.72947 2.34951 1.72947 1.87805Z" fill="black"/>
<path fillRule="evenodd" clipRule="evenodd" d="M0.705078 4.60976C0.705078 4.32688 0.934396 4.09756 1.21727 4.09756H3.94898C4.23186 4.09756 4.46118 4.32688 4.46118 4.60976V13.4878C4.46118 13.7707 4.23186 14 3.94898 14H1.21727C0.934396 14 0.705078 13.7707 0.705078 13.4878V4.60976ZM1.72947 5.12195V12.9756H3.43679V5.12195H1.72947Z" fill="black"/>
<path fillRule="evenodd" clipRule="evenodd" d="M5.48557 4.60976C5.48557 4.32688 5.71488 4.09756 5.99776 4.09756H8.72947C9.01235 4.09756 9.24166 4.32688 9.24166 4.60976V4.90616L9.53892 4.77877C10.05 4.55974 10.5965 4.42239 11.1493 4.37214C13.0443 4.19986 14.7051 5.68904 14.7051 7.60115V13.4878C14.7051 13.7707 14.4758 14 14.1929 14H11.4612C11.1783 14 10.949 13.7707 10.949 13.4878V8.70732C10.949 8.48091 10.859 8.26378 10.6989 8.10369C10.5389 7.9436 10.3217 7.85366 10.0953 7.85366C9.86892 7.85366 9.65179 7.9436 9.4917 8.10369C9.3316 8.26378 9.24166 8.48091 9.24166 8.70732V13.4878C9.24166 13.7707 9.01235 14 8.72947 14H5.99776C5.71488 14 5.48557 13.7707 5.48557 13.4878V4.60976ZM6.50996 5.12195V12.9756H8.21727V8.70732C8.21727 8.20923 8.41514 7.73154 8.76734 7.37934C9.11954 7.02713 9.59723 6.82927 10.0953 6.82927C10.5934 6.82927 11.0711 7.02713 11.4233 7.37934C11.7755 7.73154 11.9734 8.20923 11.9734 8.70732V12.9756H13.6807V7.60115C13.6807 6.30059 12.5464 5.27375 11.242 5.39233C10.7953 5.43293 10.3538 5.54405 9.94245 5.72033L8.93123 6.15371C8.77298 6.22153 8.59124 6.20531 8.44751 6.11053C8.30377 6.01575 8.21727 5.8551 8.21727 5.68293V5.12195H6.50996Z" fill="black"/>
</svg>
