<svg width="20" height="23" viewBox="0 0 20 23" fill="none" xmlns="http://www.w3.org/2000/svg">
<path d="M15.2 15.918C15.0443 15.807 14.9664 15.6625 14.9664 15.4844C14.9664 15.3073 15.0443 15.1409 15.2 14.9852L17.8336 12.3516H7.3008C7.12267 12.3516 6.96107 12.2796 6.816 12.1356C6.672 11.9905 6.6 11.8294 6.6 11.6524C6.6 11.4966 6.672 11.3462 6.816 11.2012C6.96107 11.0572 7.12267 10.9852 7.3008 10.9852H17.7328L15.1328 8.35157C15.0443 8.21824 15 8.06837 15 7.90197C15 7.73557 15.0667 7.58517 15.2 7.45077C15.3333 7.31851 15.4944 7.25771 15.6832 7.26837C15.872 7.27904 16.0555 7.36224 16.2336 7.51797L19.6336 10.918C19.7669 11.0513 19.8613 11.1793 19.9168 11.302C19.9723 11.4236 20 11.551 20 11.6844C20 11.8401 19.9723 11.9793 19.9168 12.102C19.8613 12.2236 19.7669 12.351 19.6336 12.4844L16.1328 15.9516C16.0443 16.0625 15.9109 16.1345 15.7328 16.1676C15.5557 16.2017 15.3781 16.1185 15.2 15.918ZM2.1664 22.8524C1.56693 22.8524 1.056 22.6412 0.6336 22.2188C0.2112 21.7964 0 21.2737 0 20.6508V2.68438C0 2.06251 0.2112 1.54038 0.6336 1.11798C1.056 0.695575 1.56693 0.484375 2.1664 0.484375H9.8336C9.98933 0.484375 10.1392 0.556909 10.2832 0.701975C10.4283 0.845975 10.5008 0.995842 10.5008 1.15158C10.5008 1.32971 10.4283 1.49078 10.2832 1.63478C10.1392 1.77878 9.98933 1.85077 9.8336 1.85077H2.1664C1.96693 1.85077 1.78347 1.93451 1.616 2.10197C1.4496 2.26837 1.3664 2.46251 1.3664 2.68438V20.6508C1.3664 20.8737 1.4496 21.0684 1.616 21.2348C1.78347 21.4012 1.96693 21.4844 2.1664 21.4844H9.8336C9.98933 21.4844 10.1392 21.5569 10.2832 21.702C10.4283 21.846 10.5008 21.9958 10.5008 22.1516C10.5008 22.3297 10.4283 22.4908 10.2832 22.6348C10.1392 22.7798 9.98933 22.8524 9.8336 22.8524H2.1664Z" fill="#ADB2B8"/>
</svg>
