<svg width="12" height="14" viewBox="0 0 12 14" fill="none" xmlns="http://www.w3.org/2000/svg">
<path d="M8.66659 3.00001V1.85623C8.66659 1.34388 8.66659 1.0877 8.55906 0.922102C8.46499 0.777209 8.31834 0.674492 8.15002 0.635596C7.95765 0.591141 7.7169 0.678687 7.23539 0.853778L2.38646 2.61703C2.00701 2.75501 1.81729 2.824 1.67735 2.94559C1.55374 3.053 1.4584 3.18912 1.3997 3.34199C1.33325 3.51505 1.33325 3.71693 1.33325 4.1207V7.00001M3.99992 10.3333H7.99992M3.99992 8.00001H7.99992M3.99992 5.66668H7.99992M3.46659 13H8.53325C9.27999 13 9.65336 13 9.93857 12.8547C10.1895 12.7269 10.3934 12.5229 10.5213 12.272C10.6666 11.9868 10.6666 11.6134 10.6666 10.8667V5.13335C10.6666 4.38661 10.6666 4.01324 10.5213 3.72802C10.3934 3.47714 10.1895 3.27317 9.93857 3.14534C9.65336 3.00001 9.27999 3.00001 8.53325 3.00001H3.46659C2.71985 3.00001 2.34648 3.00001 2.06126 3.14534C1.81038 3.27317 1.60641 3.47714 1.47858 3.72802C1.33325 4.01324 1.33325 4.38661 1.33325 5.13334V10.8667C1.33325 11.6134 1.33325 11.9868 1.47858 12.272C1.60641 12.5229 1.81038 12.7269 2.06126 12.8547C2.34648 13 2.71985 13 3.46659 13Z" stroke="#909090" stroke-linecap="round" stroke-linejoin="round"/>
</svg>
