<svg width="45" height="46" viewBox="0 0 45 46" fill="none" xmlns="http://www.w3.org/2000/svg">
<path d="M28.0791 26.4784L28.0792 26.4784C28.288 26.6873 28.1401 27.0444 27.8447 27.0444H25.1664H19.8331H17.1549C16.8595 27.0444 16.7115 26.6873 16.9204 26.4784C17.3341 26.0647 17.5664 25.5034 17.5664 24.9191V22.1111C17.5664 20.0632 18.8151 18.3051 20.5939 17.559C20.8977 17.4316 21.122 17.1336 21.122 16.7778C21.122 16.4124 21.2672 16.0619 21.5255 15.8035C21.7839 15.5452 22.1344 15.4 22.4998 15.4C22.8652 15.4 23.2156 15.5452 23.474 15.8035C23.7324 16.0619 23.8776 16.4124 23.8776 16.7778C23.8776 17.1334 24.1017 17.4315 24.4057 17.559C25.257 17.9158 25.9931 18.5051 26.528 19.2619C27.117 20.0952 27.4332 21.0906 27.4331 22.1111V22.1111V24.9182C27.4331 24.9182 27.4331 24.9182 27.4331 24.9182C27.4331 25.2079 27.4901 25.4948 27.6009 25.7625L27.9705 25.6095L27.6009 25.7625C27.7118 26.0302 27.8743 26.2735 28.0791 26.4784ZM24.7664 27.8444V28.3333C24.7664 28.9345 24.5276 29.511 24.1026 29.9361C23.6775 30.3612 23.1009 30.6 22.4998 30.6C21.8986 30.6 21.3221 30.3612 20.897 29.9361C20.4719 29.511 20.2331 28.9345 20.2331 28.3333V27.8444H24.7664Z" stroke="black" stroke-width="0.8" stroke-linecap="round" stroke-linejoin="round"/>
<rect x="0.4" y="0.4" width="44.2" height="45.2" rx="3.6" stroke="#ADB2B8" stroke-width="0.8"/>
</svg>
