<svg width="45" height="46" viewBox="0 0 45 46" fill="none" xmlns="http://www.w3.org/2000/svg">
<path d="M28.0811 26.4784L28.0811 26.4784C28.29 26.6873 28.1421 27.0444 27.8467 27.0444H25.1684H19.8351H17.1568C16.8614 27.0444 16.7135 26.6873 16.9224 26.4784C17.336 26.0647 17.5684 25.5034 17.5684 24.9191V22.1111C17.5684 20.0632 18.8171 18.3051 20.5959 17.559C20.8996 17.4316 21.124 17.1336 21.124 16.7778C21.124 16.4124 21.2691 16.0619 21.5275 15.8035C21.7859 15.5452 22.1363 15.4 22.5017 15.4C22.8671 15.4 23.2176 15.5452 23.476 15.8035C23.7344 16.0619 23.8795 16.4124 23.8795 16.7778C23.8795 17.1334 24.1036 17.4315 24.4076 17.559C25.2589 17.9158 25.995 18.5051 26.53 19.2619C27.119 20.0952 27.4352 21.0906 27.4351 22.1111V22.1111V24.9182C27.4351 24.9182 27.4351 24.9182 27.4351 24.9182C27.435 25.2079 27.4921 25.4948 27.6029 25.7625L27.9725 25.6095L27.6029 25.7625C27.7137 26.0302 27.8762 26.2735 28.0811 26.4784ZM24.7684 27.8444V28.3333C24.7684 28.9345 24.5296 29.511 24.1045 29.9361C23.6794 30.3612 23.1029 30.6 22.5017 30.6C21.9006 30.6 21.324 30.3612 20.899 29.9361C20.4739 29.511 20.2351 28.9345 20.2351 28.3333V27.8444H24.7684Z" stroke="black" strokeWidth="0.8" stroke-linecap="round" strokeLinejoin="round"/>
<circle cx="27.2415" cy="19.7405" r="2.37037" fill="#CE1313"/>
<rect x="0.4" y="0.4" width="44.2" height="45.2" rx="3.6" stroke="#ADB2B8" strokeWidth="0.8"/>
</svg>
