<svg width="26" height="26" viewBox="0 0 26 26" fill="none" xmlns="http://www.w3.org/2000/svg">
<path fillRule="evenodd" clipRule="evenodd" d="M6.32085 10.8811C6.32085 13.2148 5.13004 15.1069 3.66042 15.1069C2.19081 15.1069 1 13.2148 1 10.8811C1 8.54737 2.19081 6.65527 3.66042 6.65527C5.13004 6.65527 6.32085 8.54737 6.32085 10.8811Z" stroke="black" strokeLinejoin="round"/>
<path fillRule="evenodd" clipRule="evenodd" d="M11.9788 4.74179C12.0629 6.86161 11.0487 8.62175 9.71529 8.67389C8.38083 8.72816 7.23152 7.05316 7.14745 4.9344C7.06338 2.81458 8.07647 1.05444 9.41094 1.00123C10.7454 0.948024 11.8947 2.62409 11.9788 4.74179Z" stroke="black" strokeLinejoin="round"/>
<path fillRule="evenodd" clipRule="evenodd" d="M19.8477 10.8811C19.8477 13.2148 21.0385 15.1069 22.5081 15.1069C23.9777 15.1069 25.1685 13.2148 25.1685 10.8811C25.1685 8.54737 23.9777 6.65527 22.5081 6.65527C21.0385 6.65527 19.8477 8.54737 19.8477 10.8811Z" stroke="black" strokeLinejoin="round"/>
<path fillRule="evenodd" clipRule="evenodd" d="M14.1904 4.74179C14.1063 6.86161 15.1205 8.62175 16.4539 8.67389C17.7884 8.72816 18.9377 7.05316 19.0217 4.9344C19.1058 2.81458 18.0927 1.05444 16.7583 1.00123C15.4238 0.948024 14.2745 2.62409 14.1904 4.74179Z" stroke="black" strokeLinejoin="round"/>
<path fillRule="evenodd" clipRule="evenodd" d="M16.7151 14.6314C16.3512 12.817 15.2625 10.6387 13.0842 10.6387C10.9058 10.6387 9.81716 12.817 9.45321 14.6314C9.0616 16.5895 5.82227 17.8995 5.82227 20.8047C5.82227 26.399 20.346 26.399 20.346 20.8047C20.346 17.8995 17.1067 16.5895 16.7151 14.6314Z" stroke="black" strokeLinejoin="round"/>
</svg>
