<svg width="34" height="26" viewBox="0 0 34 26" fill="none" xmlns="http://www.w3.org/2000/svg">
<path d="M1 1C4.24424 1 4.24424 3.82353 7.48847 3.82353C10.7327 3.82353 10.7327 1 13.9769 1C17.224 1 17.224 3.82353 20.4725 3.82353C23.7224 3.82353 23.7224 1 26.9708 1C30.2207 1 30.2207 3.82353 33.4706 3.82353" stroke="black" stroke-linecap="round" stroke-linejoin="round"/>
<path d="M1 8.05859C4.24424 8.05859 4.24424 10.8821 7.48847 10.8821C10.7327 10.8821 10.7327 8.05859 13.9769 8.05859C17.224 8.05859 17.224 10.8821 20.4725 10.8821C23.7224 10.8821 23.7224 8.05859 26.9708 8.05859C30.2207 8.05859 30.2207 10.8821 33.4706 10.8821" stroke="black" stroke-linecap="round" stroke-linejoin="round"/>
<path d="M1 15.1172C4.24424 15.1172 4.24424 17.9407 7.48847 17.9407C10.7327 17.9407 10.7327 15.1172 13.9769 15.1172C17.224 15.1172 17.224 17.9407 20.4725 17.9407C23.7224 17.9407 23.7224 15.1172 26.9708 15.1172C30.2207 15.1172 30.2207 17.9407 33.4706 17.9407" stroke="black" stroke-linecap="round" stroke-linejoin="round"/>
<path d="M1 22.1768C4.24424 22.1768 4.24424 25.0003 7.48847 25.0003C10.7327 25.0003 10.7327 22.1768 13.9769 22.1768C17.224 22.1768 17.224 25.0003 20.4725 25.0003C23.7224 25.0003 23.7224 22.1768 26.9708 22.1768C30.2207 22.1768 30.2207 25.0003 33.4706 25.0003" stroke="black" stroke-linecap="round" stroke-linejoin="round"/>
</svg>
