<svg width="17" height="17" viewBox="0 0 17 17" fill="none" xmlns="http://www.w3.org/2000/svg">
<path d="M5.55932 16.3018C5.32127 16.3018 5.09626 16.2594 4.8843 16.1746C4.67233 16.089 4.48972 15.9614 4.33645 15.7918L0.69353 12.1489C0.523959 11.9956 0.396373 11.813 0.310772 11.6011C0.225987 11.3891 0.183594 11.1641 0.183594 10.926V5.67748C0.183594 5.43943 0.225987 5.21442 0.310772 5.00246C0.396373 4.7905 0.523959 4.60788 0.69353 4.45462L4.33645 0.811694C4.48972 0.642123 4.67233 0.514944 4.8843 0.430159C5.09626 0.344558 5.32127 0.301758 5.55932 0.301758H10.8079C11.0459 0.301758 11.2709 0.344558 11.4829 0.430159C11.6949 0.514944 11.8775 0.642123 12.0307 0.811694L15.6737 4.45462C15.8432 4.60788 15.9708 4.7905 16.0564 5.00246C16.1412 5.21442 16.1836 5.43943 16.1836 5.67748V10.926C16.1836 11.1641 16.1412 11.3891 16.0564 11.6011C15.9708 11.813 15.8432 11.9956 15.6737 12.1489L12.0307 15.7918C11.8775 15.9614 11.6949 16.089 11.4829 16.1746C11.2709 16.2594 11.0459 16.3018 10.8079 16.3018H5.55932ZM8.18359 12.7347C8.35316 12.7347 8.50195 12.6711 8.62994 12.5439C8.75712 12.4159 8.82071 12.2671 8.82071 12.0975C8.82071 11.928 8.75712 11.7751 8.62994 11.639C8.50195 11.5028 8.35316 11.4347 8.18359 11.4347C8.01402 11.4347 7.86524 11.4987 7.73725 11.6267C7.61007 11.7539 7.54648 11.9108 7.54648 12.0975C7.54648 12.2671 7.61007 12.4159 7.73725 12.5439C7.86524 12.6711 8.01402 12.7347 8.18359 12.7347ZM8.18359 9.72884C8.31974 9.72884 8.44284 9.67789 8.5529 9.57598C8.66377 9.47408 8.71921 9.35505 8.71921 9.21891V4.20026C8.71921 4.08123 8.66377 3.96669 8.5529 3.85663C8.44284 3.74576 8.31974 3.69032 8.18359 3.69032C8.04745 3.69032 7.92842 3.74576 7.82652 3.85663C7.72461 3.96669 7.67366 4.08123 7.67366 4.20026V9.21891C7.67366 9.35505 7.72461 9.47408 7.82652 9.57598C7.92842 9.67789 8.04745 9.72884 8.18359 9.72884ZM5.27928 15.2819H11.0879L15.1637 11.2061V5.39745L11.0879 1.32163H5.27928L1.20347 5.39745V11.2061L5.27928 15.2819Z" fill="#CE1313"/>
</svg>
