<svg width="26" height="26" viewBox="0 0 26 26" fill="none" xmlns="http://www.w3.org/2000/svg">
<path fill-rule="evenodd" clip-rule="evenodd" d="M7.0878 20.8624C7.0878 20.8624 7.84223 16.4663 5.69372 14.0433C5.57685 13.9108 5.58311 13.7157 5.70207 13.5852C6.44293 12.7745 8.32431 13.6082 10.2151 17.0767C10.7097 17.9814 11.7406 17.9344 12.6359 17.4231C14.3399 16.4506 16.6022 13.9181 18.1632 13.5216C20.2178 12.9998 20.9274 14.252 20.5319 14.6475L11.5695 23.6088L7.0878 20.8624Z" stroke="#A4A4A4" stroke-linejoin="round"/>
<path fill-rule="evenodd" clip-rule="evenodd" d="M10.1805 24.9997L11.5704 23.6087L7.08866 20.8623L3.33008 24.9997H10.1805Z" stroke="#A4A4A4" stroke-linecap="round" stroke-linejoin="round"/>
<path d="M24.9132 12.4785H1" stroke="#A4A4A4" stroke-linecap="round" stroke-linejoin="round"/>
<path fill-rule="evenodd" clip-rule="evenodd" d="M22.7999 12.4787C22.8093 12.3044 22.826 12.1333 22.826 11.9569C22.826 6.48183 18.3881 2.04395 12.913 2.04395C7.43893 2.04395 3 6.48183 3 11.9569C3 12.1333 3.01774 12.3044 3.02713 12.4787H22.7999Z" stroke="#A4A4A4" stroke-linecap="round" stroke-linejoin="round"/>
<path d="M12.9142 4.65234C9.59701 4.65234 6.78798 6.82381 5.83008 9.82274" stroke="#A4A4A4" stroke-linecap="round" stroke-linejoin="round"/>
<path d="M12.3906 2.04347V1" stroke="#A4A4A4" stroke-linecap="round" stroke-linejoin="round"/>
</svg>
