<svg width="14" height="18" viewBox="0 0 14 18" fill="none" xmlns="http://www.w3.org/2000/svg">
<path d="M2.02361 14.541C1.76937 14.541 1.55406 14.4481 1.37769 14.2624C1.20225 14.0766 1.11453 13.8665 1.11453 13.6319C1.11453 13.3786 1.20225 13.1591 1.37769 12.9733C1.55406 12.7876 1.76937 12.6947 2.02361 12.6947C2.25815 12.6947 2.4683 12.7923 2.65405 12.9874C2.83981 13.1826 2.93269 13.3974 2.93269 13.6319C2.93269 13.8665 2.83981 14.0766 2.65405 14.2624C2.4683 14.4481 2.25815 14.541 2.02361 14.541ZM6.88984 14.541C6.6553 14.541 6.44516 14.4481 6.2594 14.2624C6.07364 14.0766 5.98077 13.8665 5.98077 13.6319C5.98077 13.3786 6.07364 13.1591 6.2594 12.9733C6.44516 12.7876 6.6553 12.6947 6.88984 12.6947C7.14409 12.6947 7.35892 12.7923 7.53436 12.9874C7.71073 13.1826 7.79892 13.3974 7.79892 13.6319C7.79892 13.8665 7.70604 14.0766 7.52029 14.2624C7.33453 14.4481 7.12438 14.541 6.88984 14.541ZM11.7856 14.541C11.5511 14.541 11.3409 14.4481 11.1552 14.2624C10.9694 14.0766 10.8766 13.8665 10.8766 13.6319C10.8766 13.3786 10.9694 13.1591 11.1552 12.9733C11.3409 12.7876 11.5511 12.6947 11.7856 12.6947C12.0202 12.6947 12.2303 12.7923 12.4161 12.9874C12.6018 13.1826 12.6947 13.3974 12.6947 13.6319C12.6947 13.8665 12.6018 14.0766 12.4161 14.2624C12.2303 14.4481 12.0202 14.541 11.7856 14.541ZM0.938628 9.88023C0.684387 9.88023 0.464389 9.78735 0.278633 9.60159C0.0928777 9.41584 0 9.19584 0 8.9416V8.64889C0 6.94801 0.610742 5.48214 1.83223 4.25127C3.05371 3.01947 4.54398 2.33508 6.30303 2.19811V0.586819C6.30303 0.449848 6.36166 0.317567 6.47893 0.189977C6.5962 0.0633258 6.73317 0 6.88984 0C7.04652 0 7.18818 0.0633258 7.31483 0.189977C7.44242 0.317567 7.50621 0.449848 7.50621 0.586819V2.19811C9.24556 2.33508 10.726 3.01947 11.9475 4.25127C13.1689 5.48214 13.7797 6.94801 13.7797 8.64889V8.9416C13.7797 9.17614 13.6821 9.39098 13.487 9.58612C13.2909 9.78219 13.0756 9.88023 12.8411 9.88023H0.938628ZM1.20178 8.67845H12.5779C12.5779 7.2121 12.0206 5.95591 10.9061 4.90986C9.79251 3.86475 8.45376 3.34219 6.88984 3.34219C5.32593 3.34219 3.98718 3.86475 2.87358 4.90986C1.75905 5.95591 1.20178 7.2121 1.20178 8.67845ZM2.02361 18C1.76937 18 1.55406 17.9076 1.37769 17.7228C1.20225 17.537 1.11453 17.3269 1.11453 17.0923C1.11453 16.8578 1.20225 16.6476 1.37769 16.4619C1.55406 16.2761 1.76937 16.1833 2.02361 16.1833C2.25815 16.1833 2.4683 16.2761 2.65405 16.4619C2.83981 16.6476 2.93269 16.8578 2.93269 17.0923C2.93269 17.3269 2.83981 17.537 2.65405 17.7228C2.4683 17.9076 2.25815 18 2.02361 18ZM6.88984 18C6.6553 18 6.44516 17.9076 6.2594 17.7228C6.07364 17.537 5.98077 17.3269 5.98077 17.0923C5.98077 16.8578 6.07364 16.6476 6.2594 16.4619C6.44516 16.2761 6.6553 16.1833 6.88984 16.1833C7.14409 16.1833 7.35892 16.2761 7.53436 16.4619C7.71073 16.6476 7.79892 16.8578 7.79892 17.0923C7.79892 17.3269 7.70604 17.537 7.52029 17.7228C7.33453 17.9076 7.12438 18 6.88984 18ZM11.7856 18C11.5511 18 11.3409 17.9076 11.1552 17.7228C10.9694 17.537 10.8766 17.3269 10.8766 17.0923C10.8766 16.8578 10.9694 16.6476 11.1552 16.4619C11.3409 16.2761 11.5511 16.1833 11.7856 16.1833C12.0202 16.1833 12.2303 16.2761 12.4161 16.4619C12.6018 16.6476 12.6947 16.8578 12.6947 17.0923C12.6947 17.3269 12.6018 17.537 12.4161 17.7228C12.2303 17.9076 12.0202 18 11.7856 18Z" fill="black"/>
</svg>
