<svg width="1000" height="50" viewBox="0 0 1000 50" fill="none" xmlns="http://www.w3.org/2000/svg">
<line x1="2.5" y1="7.86133" x2="997.5" y2="7.86133" stroke="#E8EAEE" stroke-width="5" stroke-linecap="round"/>
<line x1="2.5" y1="7.5" x2="297.5" y2="7.5" stroke="black" stroke-width="5" stroke-linecap="round"/>
<path d="M316.48 45L320.608 33.8H322.032L326.144 45H324.72L323.696 42.12H318.928L317.888 45H316.48ZM319.328 41.032H323.296L321.312 35.496L319.328 41.032ZM327.729 45V37.064H328.945L329.041 38.216C329.297 37.7893 329.638 37.4587 330.065 37.224C330.492 36.9893 330.972 36.872 331.505 36.872C332.134 36.872 332.673 37 333.121 37.256C333.58 37.512 333.932 37.9013 334.177 38.424C334.454 37.944 334.833 37.5653 335.313 37.288C335.804 37.0107 336.332 36.872 336.897 36.872C337.846 36.872 338.604 37.16 339.169 37.736C339.734 38.3013 340.017 39.176 340.017 40.36V45H338.689V40.504C338.689 39.6827 338.524 39.064 338.193 38.648C337.862 38.232 337.388 38.024 336.769 38.024C336.129 38.024 335.596 38.2747 335.169 38.776C334.753 39.2667 334.545 39.9707 334.545 40.888V45H333.201V40.504C333.201 39.6827 333.036 39.064 332.705 38.648C332.374 38.232 331.9 38.024 331.281 38.024C330.652 38.024 330.124 38.2747 329.697 38.776C329.281 39.2667 329.073 39.9707 329.073 40.888V45H327.729ZM345.61 45.192C344.852 45.192 344.18 45.0213 343.594 44.68C343.007 44.328 342.543 43.8427 342.202 43.224C341.871 42.6053 341.706 41.8747 341.706 41.032C341.706 40.2 341.871 39.4747 342.202 38.856C342.532 38.2267 342.991 37.7413 343.578 37.4C344.175 37.048 344.863 36.872 345.641 36.872C346.41 36.872 347.071 37.048 347.626 37.4C348.191 37.7413 348.623 38.1947 348.922 38.76C349.22 39.3253 349.37 39.9333 349.37 40.584C349.37 40.7013 349.364 40.8187 349.354 40.936C349.354 41.0533 349.354 41.1867 349.354 41.336H343.034C343.066 41.944 343.204 42.4507 343.45 42.856C343.706 43.2507 344.02 43.5493 344.394 43.752C344.778 43.9547 345.183 44.056 345.61 44.056C346.164 44.056 346.628 43.928 347.002 43.672C347.375 43.416 347.647 43.0693 347.818 42.632H349.146C348.932 43.368 348.522 43.9813 347.914 44.472C347.316 44.952 346.548 45.192 345.61 45.192ZM345.61 38.008C344.97 38.008 344.399 38.2053 343.898 38.6C343.407 38.984 343.124 39.5493 343.049 40.296H348.042C348.01 39.5813 347.764 39.0213 347.306 38.616C346.847 38.2107 346.282 38.008 345.61 38.008ZM351.151 45V37.064H352.367L352.447 38.488C352.703 37.9867 353.071 37.592 353.551 37.304C354.031 37.016 354.575 36.872 355.183 36.872C356.122 36.872 356.868 37.16 357.423 37.736C357.988 38.3013 358.271 39.176 358.271 40.36V45H356.927V40.504C356.927 38.8507 356.244 38.024 354.879 38.024C354.196 38.024 353.626 38.2747 353.167 38.776C352.719 39.2667 352.495 39.9707 352.495 40.888V45H351.151ZM361.123 35.304C360.856 35.304 360.632 35.2187 360.451 35.048C360.28 34.8667 360.195 34.6427 360.195 34.376C360.195 34.12 360.28 33.9067 360.451 33.736C360.632 33.5653 360.856 33.48 361.123 33.48C361.379 33.48 361.598 33.5653 361.779 33.736C361.96 33.9067 362.051 34.12 362.051 34.376C362.051 34.6427 361.96 34.8667 361.779 35.048C361.598 35.2187 361.379 35.304 361.123 35.304ZM360.451 45V37.064H361.795V45H360.451ZM367.271 45C366.546 45 365.975 44.824 365.559 44.472C365.143 44.12 364.935 43.4853 364.935 42.568V38.2H363.559V37.064H364.935L365.111 35.16H366.279V37.064H368.615V38.2H366.279V42.568C366.279 43.0693 366.381 43.4107 366.583 43.592C366.786 43.7627 367.143 43.848 367.655 43.848H368.487V45H367.271ZM371.139 35.304C370.872 35.304 370.648 35.2187 370.467 35.048C370.296 34.8667 370.211 34.6427 370.211 34.376C370.211 34.12 370.296 33.9067 370.467 33.736C370.648 33.5653 370.872 33.48 371.139 33.48C371.395 33.48 371.613 33.5653 371.795 33.736C371.976 33.9067 372.067 34.12 372.067 34.376C372.067 34.6427 371.976 34.8667 371.795 35.048C371.613 35.2187 371.395 35.304 371.139 35.304ZM370.467 45V37.064H371.811V45H370.467ZM377.719 45.192C376.962 45.192 376.29 45.0213 375.703 44.68C375.116 44.328 374.652 43.8427 374.311 43.224C373.98 42.6053 373.815 41.8747 373.815 41.032C373.815 40.2 373.98 39.4747 374.311 38.856C374.642 38.2267 375.1 37.7413 375.687 37.4C376.284 37.048 376.972 36.872 377.751 36.872C378.519 36.872 379.18 37.048 379.735 37.4C380.3 37.7413 380.732 38.1947 381.031 38.76C381.33 39.3253 381.479 39.9333 381.479 40.584C381.479 40.7013 381.474 40.8187 381.463 40.936C381.463 41.0533 381.463 41.1867 381.463 41.336H375.143C375.175 41.944 375.314 42.4507 375.559 42.856C375.815 43.2507 376.13 43.5493 376.503 43.752C376.887 43.9547 377.292 44.056 377.719 44.056C378.274 44.056 378.738 43.928 379.111 43.672C379.484 43.416 379.756 43.0693 379.927 42.632H381.255C381.042 43.368 380.631 43.9813 380.023 44.472C379.426 44.952 378.658 45.192 377.719 45.192ZM377.719 38.008C377.079 38.008 376.508 38.2053 376.007 38.6C375.516 38.984 375.234 39.5493 375.159 40.296H380.151C380.119 39.5813 379.874 39.0213 379.415 38.616C378.956 38.2107 378.391 38.008 377.719 38.008ZM386.3 45.192C385.351 45.192 384.562 44.952 383.932 44.472C383.303 43.992 382.935 43.3413 382.828 42.52H384.204C384.29 42.936 384.508 43.2987 384.86 43.608C385.223 43.9067 385.708 44.056 386.316 44.056C386.882 44.056 387.298 43.9387 387.564 43.704C387.831 43.4587 387.964 43.1707 387.964 42.84C387.964 42.36 387.788 42.04 387.436 41.88C387.095 41.72 386.61 41.576 385.98 41.448C385.554 41.3627 385.127 41.24 384.7 41.08C384.274 40.92 383.916 40.696 383.628 40.408C383.34 40.1093 383.196 39.72 383.196 39.24C383.196 38.5467 383.452 37.9813 383.964 37.544C384.487 37.096 385.191 36.872 386.076 36.872C386.919 36.872 387.607 37.0853 388.14 37.512C388.684 37.928 388.999 38.5253 389.084 39.304H387.756C387.703 38.8987 387.527 38.584 387.228 38.36C386.94 38.1253 386.551 38.008 386.06 38.008C385.58 38.008 385.207 38.1093 384.94 38.312C384.684 38.5147 384.556 38.7813 384.556 39.112C384.556 39.432 384.722 39.6827 385.052 39.864C385.394 40.0453 385.852 40.2 386.428 40.328C386.919 40.4347 387.383 40.568 387.82 40.728C388.268 40.8773 388.631 41.1067 388.908 41.416C389.196 41.7147 389.34 42.152 389.34 42.728C389.351 43.4427 389.079 44.0347 388.524 44.504C387.98 44.9627 387.239 45.192 386.3 45.192ZM398.887 45.192C398.119 45.192 397.441 45.0533 396.855 44.776C396.279 44.488 395.825 44.0933 395.495 43.592C395.175 43.08 395.015 42.4773 395.015 41.784C395.015 41.0267 395.233 40.3547 395.671 39.768C396.119 39.1707 396.764 38.7013 397.607 38.36C397.244 37.9653 396.983 37.592 396.823 37.24C396.663 36.8773 396.583 36.488 396.583 36.072C396.583 35.3573 396.833 34.7707 397.335 34.312C397.847 33.8427 398.545 33.608 399.431 33.608C400.007 33.608 400.508 33.72 400.935 33.944C401.361 34.1573 401.692 34.456 401.927 34.84C402.161 35.224 402.268 35.6613 402.247 36.152H400.919C400.929 35.672 400.78 35.3093 400.471 35.064C400.172 34.8187 399.825 34.696 399.431 34.696C398.951 34.696 398.577 34.824 398.311 35.08C398.044 35.336 397.911 35.6613 397.911 36.056C397.911 36.3973 398.001 36.728 398.183 37.048C398.375 37.368 398.657 37.7253 399.031 38.12L402.567 41.688C402.876 41.24 403.212 40.7013 403.575 40.072L404.071 39.208H405.495L404.791 40.456C404.321 41.2987 403.873 42.0027 403.447 42.568L405.863 45H404.167L402.679 43.496C402.113 44.104 401.527 44.5413 400.919 44.808C400.311 45.064 399.633 45.192 398.887 45.192ZM396.359 41.736C396.359 42.3973 396.593 42.9467 397.063 43.384C397.532 43.8213 398.145 44.04 398.903 44.04C399.468 44.04 399.98 43.9333 400.439 43.72C400.908 43.496 401.367 43.1333 401.815 42.632L398.423 39.192C397.719 39.4693 397.196 39.8213 396.855 40.248C396.524 40.6747 396.359 41.1707 396.359 41.736ZM411.528 45V33.8H418.344V34.904H412.872V38.84H417.528V39.928H412.872V45H411.528ZM423.219 45.192C422.462 45.192 421.79 45.0213 421.203 44.68C420.616 44.328 420.152 43.8427 419.811 43.224C419.48 42.6053 419.315 41.8747 419.315 41.032C419.315 40.2 419.48 39.4747 419.811 38.856C420.142 38.2267 420.6 37.7413 421.187 37.4C421.784 37.048 422.472 36.872 423.251 36.872C424.019 36.872 424.68 37.048 425.235 37.4C425.8 37.7413 426.232 38.1947 426.531 38.76C426.83 39.3253 426.979 39.9333 426.979 40.584C426.979 40.7013 426.974 40.8187 426.963 40.936C426.963 41.0533 426.963 41.1867 426.963 41.336H420.643C420.675 41.944 420.814 42.4507 421.059 42.856C421.315 43.2507 421.63 43.5493 422.003 43.752C422.387 43.9547 422.792 44.056 423.219 44.056C423.774 44.056 424.238 43.928 424.611 43.672C424.984 43.416 425.256 43.0693 425.427 42.632H426.755C426.542 43.368 426.131 43.9813 425.523 44.472C424.926 44.952 424.158 45.192 423.219 45.192ZM423.219 38.008C422.579 38.008 422.008 38.2053 421.507 38.6C421.016 38.984 420.734 39.5493 420.659 40.296H425.651C425.619 39.5813 425.374 39.0213 424.915 38.616C424.456 38.2107 423.891 38.008 423.219 38.008ZM431.4 45.192C430.739 45.192 430.19 45.08 429.752 44.856C429.315 44.632 428.99 44.3333 428.776 43.96C428.563 43.5867 428.456 43.1813 428.456 42.744C428.456 41.9333 428.766 41.3093 429.384 40.872C430.003 40.4347 430.846 40.216 431.912 40.216H434.056V40.12C434.056 39.4267 433.875 38.904 433.512 38.552C433.15 38.1893 432.664 38.008 432.056 38.008C431.534 38.008 431.08 38.1413 430.696 38.408C430.323 38.664 430.088 39.0427 429.992 39.544H428.616C428.67 38.968 428.862 38.4827 429.192 38.088C429.534 37.6933 429.955 37.3947 430.456 37.192C430.958 36.9787 431.491 36.872 432.056 36.872C433.166 36.872 433.998 37.1707 434.552 37.768C435.118 38.3547 435.4 39.1387 435.4 40.12V45H434.2L434.12 43.576C433.896 44.024 433.566 44.408 433.128 44.728C432.702 45.0373 432.126 45.192 431.4 45.192ZM431.608 44.056C432.12 44.056 432.558 43.9227 432.92 43.656C433.294 43.3893 433.576 43.0427 433.768 42.616C433.96 42.1893 434.056 41.7413 434.056 41.272V41.256H432.024C431.235 41.256 430.675 41.3947 430.344 41.672C430.024 41.9387 429.864 42.2747 429.864 42.68C429.864 43.096 430.014 43.432 430.312 43.688C430.622 43.9333 431.054 44.056 431.608 44.056ZM440.334 45C439.608 45 439.038 44.824 438.622 44.472C438.206 44.12 437.998 43.4853 437.998 42.568V38.2H436.622V37.064H437.998L438.174 35.16H439.342V37.064H441.678V38.2H439.342V42.568C439.342 43.0693 439.443 43.4107 439.646 43.592C439.848 43.7627 440.206 43.848 440.718 43.848H441.55V45H440.334ZM446.281 45.192C445.343 45.192 444.596 44.9093 444.041 44.344C443.487 43.768 443.209 42.888 443.209 41.704V37.064H444.553V41.56C444.553 43.2133 445.231 44.04 446.585 44.04C447.279 44.04 447.849 43.7947 448.297 43.304C448.756 42.8027 448.985 42.0933 448.985 41.176V37.064H450.329V45H449.113L449.017 43.576C448.772 44.0773 448.404 44.472 447.913 44.76C447.433 45.048 446.889 45.192 446.281 45.192ZM452.542 45V37.064H453.758L453.87 38.584C454.115 38.0613 454.488 37.6453 454.99 37.336C455.491 37.0267 456.11 36.872 456.846 36.872V38.28H456.478C456.008 38.28 455.576 38.3653 455.182 38.536C454.787 38.696 454.472 38.9733 454.238 39.368C454.003 39.7627 453.886 40.3067 453.886 41V45H452.542ZM461.625 45.192C460.868 45.192 460.196 45.0213 459.609 44.68C459.022 44.328 458.558 43.8427 458.217 43.224C457.886 42.6053 457.721 41.8747 457.721 41.032C457.721 40.2 457.886 39.4747 458.217 38.856C458.548 38.2267 459.006 37.7413 459.593 37.4C460.19 37.048 460.878 36.872 461.657 36.872C462.425 36.872 463.086 37.048 463.641 37.4C464.206 37.7413 464.638 38.1947 464.937 38.76C465.236 39.3253 465.385 39.9333 465.385 40.584C465.385 40.7013 465.38 40.8187 465.369 40.936C465.369 41.0533 465.369 41.1867 465.369 41.336H459.049C459.081 41.944 459.22 42.4507 459.465 42.856C459.721 43.2507 460.036 43.5493 460.409 43.752C460.793 43.9547 461.198 44.056 461.625 44.056C462.18 44.056 462.644 43.928 463.017 43.672C463.39 43.416 463.662 43.0693 463.833 42.632H465.161C464.948 43.368 464.537 43.9813 463.929 44.472C463.332 44.952 462.564 45.192 461.625 45.192ZM461.625 38.008C460.985 38.008 460.414 38.2053 459.913 38.6C459.422 38.984 459.14 39.5493 459.065 40.296H464.057C464.025 39.5813 463.78 39.0213 463.321 38.616C462.862 38.2107 462.297 38.008 461.625 38.008ZM470.207 45.192C469.257 45.192 468.468 44.952 467.839 44.472C467.209 43.992 466.841 43.3413 466.735 42.52H468.111C468.196 42.936 468.415 43.2987 468.767 43.608C469.129 43.9067 469.615 44.056 470.223 44.056C470.788 44.056 471.204 43.9387 471.471 43.704C471.737 43.4587 471.871 43.1707 471.871 42.84C471.871 42.36 471.695 42.04 471.343 41.88C471.001 41.72 470.516 41.576 469.887 41.448C469.46 41.3627 469.033 41.24 468.607 41.08C468.18 40.92 467.823 40.696 467.535 40.408C467.247 40.1093 467.103 39.72 467.103 39.24C467.103 38.5467 467.359 37.9813 467.871 37.544C468.393 37.096 469.097 36.872 469.983 36.872C470.825 36.872 471.513 37.0853 472.047 37.512C472.591 37.928 472.905 38.5253 472.991 39.304H471.663C471.609 38.8987 471.433 38.584 471.135 38.36C470.847 38.1253 470.457 38.008 469.967 38.008C469.487 38.008 469.113 38.1093 468.847 38.312C468.591 38.5147 468.463 38.7813 468.463 39.112C468.463 39.432 468.628 39.6827 468.959 39.864C469.3 40.0453 469.759 40.2 470.335 40.328C470.825 40.4347 471.289 40.568 471.727 40.728C472.175 40.8773 472.537 41.1067 472.815 41.416C473.103 41.7147 473.247 42.152 473.247 42.728C473.257 43.4427 472.985 44.0347 472.431 44.504C471.887 44.9627 471.145 45.192 470.207 45.192Z" fill="#00509D"/>
<path d="M296.55 43.12C295.903 43.12 295.35 42.97 294.89 42.67C294.43 42.3633 294.073 41.94 293.82 41.4C293.573 40.8533 293.45 40.22 293.45 39.5C293.45 38.7867 293.573 38.1567 293.82 37.61C294.073 37.0633 294.43 36.64 294.89 36.34C295.35 36.0333 295.903 35.88 296.55 35.88C297.197 35.88 297.75 36.0333 298.21 36.34C298.67 36.64 299.023 37.0633 299.27 37.61C299.523 38.1567 299.65 38.7867 299.65 39.5C299.65 40.22 299.523 40.8533 299.27 41.4C299.023 41.94 298.67 42.3633 298.21 42.67C297.75 42.97 297.197 43.12 296.55 43.12ZM296.55 41.97C297.077 41.97 297.507 41.75 297.84 41.31C298.173 40.87 298.34 40.2667 298.34 39.5C298.34 38.7333 298.173 38.13 297.84 37.69C297.507 37.25 297.077 37.03 296.55 37.03C296.017 37.03 295.583 37.25 295.25 37.69C294.923 38.13 294.76 38.7333 294.76 39.5C294.76 40.2667 294.923 40.87 295.25 41.31C295.583 41.75 296.017 41.97 296.55 41.97ZM300.561 43V42.07C300.987 41.7167 301.401 41.3667 301.801 41.02C302.207 40.6733 302.567 40.33 302.881 39.99C303.201 39.65 303.454 39.32 303.641 39C303.834 38.6733 303.931 38.3567 303.931 38.05C303.931 37.7633 303.851 37.51 303.691 37.29C303.537 37.07 303.281 36.96 302.921 36.96C302.554 36.96 302.277 37.08 302.091 37.32C301.904 37.56 301.811 37.85 301.811 38.19H300.571C300.584 37.6767 300.697 37.25 300.911 36.91C301.124 36.5633 301.407 36.3067 301.761 36.14C302.114 35.9667 302.511 35.88 302.951 35.88C303.664 35.88 304.217 36.0767 304.611 36.47C305.011 36.8567 305.211 37.36 305.211 37.98C305.211 38.3667 305.121 38.7433 304.941 39.11C304.767 39.4767 304.537 39.83 304.251 40.17C303.964 40.51 303.654 40.83 303.321 41.13C302.987 41.4233 302.664 41.6967 302.351 41.95H305.381V43H300.561Z" fill="#00509D"/>
<circle cx="299.224" cy="38.7753" r="10.7245" stroke="black"/>
<circle cx="298.202" cy="8.16326" r="7.16326" fill="black" stroke="white" stroke-width="2"/>
<path d="M298.715 10.2041L306.368 30.6123L298.714 27.551L292.082 30.6123L298.715 10.2041Z" fill="black"/>
</svg>
