<svg width="1023" height="52" viewBox="0 0 1023 52" fill="none" xmlns="http://www.w3.org/2000/svg">
<line x1="2.5" y1="9.5" x2="966.5" y2="9.5" stroke="#E0E0E0" stroke-width="5" stroke-linecap="round"/>
<line x1="2.5" y1="9.5" x2="965.5" y2="9.5" stroke="#5448C8" stroke-width="5" stroke-linecap="round"/>
<path d="M959.184 47V35.8H962.864C963.739 35.8 964.459 35.944 965.024 36.232C965.589 36.52 966.005 36.9093 966.272 37.4C966.549 37.8907 966.688 38.4453 966.688 39.064C966.688 39.672 966.555 40.2213 966.288 40.712C966.021 41.2027 965.605 41.5973 965.04 41.896C964.475 42.184 963.749 42.328 962.864 42.328H960.528V47H959.184ZM960.528 41.192H962.832C963.728 41.192 964.363 41.0053 964.736 40.632C965.12 40.248 965.312 39.7253 965.312 39.064C965.312 38.392 965.12 37.8693 964.736 37.496C964.363 37.112 963.728 36.92 962.832 36.92H960.528V41.192ZM970.635 47.192C969.973 47.192 969.424 47.08 968.987 46.856C968.549 46.632 968.224 46.3333 968.011 45.96C967.797 45.5867 967.691 45.1813 967.691 44.744C967.691 43.9333 968 43.3093 968.619 42.872C969.237 42.4347 970.08 42.216 971.147 42.216H973.291V42.12C973.291 41.4267 973.109 40.904 972.747 40.552C972.384 40.1893 971.899 40.008 971.291 40.008C970.768 40.008 970.315 40.1413 969.931 40.408C969.557 40.664 969.323 41.0427 969.227 41.544H967.851C967.904 40.968 968.096 40.4827 968.427 40.088C968.768 39.6933 969.189 39.3947 969.691 39.192C970.192 38.9787 970.725 38.872 971.291 38.872C972.4 38.872 973.232 39.1707 973.787 39.768C974.352 40.3547 974.635 41.1387 974.635 42.12V47H973.435L973.355 45.576C973.131 46.024 972.8 46.408 972.363 46.728C971.936 47.0373 971.36 47.192 970.635 47.192ZM970.843 46.056C971.355 46.056 971.792 45.9227 972.155 45.656C972.528 45.3893 972.811 45.0427 973.003 44.616C973.195 44.1893 973.291 43.7413 973.291 43.272V43.256H971.259C970.469 43.256 969.909 43.3947 969.579 43.672C969.259 43.9387 969.099 44.2747 969.099 44.68C969.099 45.096 969.248 45.432 969.547 45.688C969.856 45.9333 970.288 46.056 970.843 46.056ZM977.281 50.52L979.249 46.232H978.785L975.633 39.064H977.089L979.713 45.24L982.497 39.064H983.889L978.689 50.52H977.281ZM985.307 47V39.064H986.523L986.619 40.216C986.875 39.7893 987.216 39.4587 987.643 39.224C988.07 38.9893 988.55 38.872 989.083 38.872C989.712 38.872 990.251 39 990.699 39.256C991.158 39.512 991.51 39.9013 991.755 40.424C992.032 39.944 992.411 39.5653 992.891 39.288C993.382 39.0107 993.91 38.872 994.475 38.872C995.424 38.872 996.182 39.16 996.747 39.736C997.312 40.3013 997.595 41.176 997.595 42.36V47H996.267V42.504C996.267 41.6827 996.102 41.064 995.771 40.648C995.44 40.232 994.966 40.024 994.347 40.024C993.707 40.024 993.174 40.2747 992.747 40.776C992.331 41.2667 992.123 41.9707 992.123 42.888V47H990.779V42.504C990.779 41.6827 990.614 41.064 990.283 40.648C989.952 40.232 989.478 40.024 988.859 40.024C988.23 40.024 987.702 40.2747 987.275 40.776C986.859 41.2667 986.651 41.9707 986.651 42.888V47H985.307ZM1003.19 47.192C1002.43 47.192 1001.76 47.0213 1001.17 46.68C1000.58 46.328 1000.12 45.8427 999.78 45.224C999.449 44.6053 999.284 43.8747 999.284 43.032C999.284 42.2 999.449 41.4747 999.78 40.856C1000.11 40.2267 1000.57 39.7413 1001.16 39.4C1001.75 39.048 1002.44 38.872 1003.22 38.872C1003.99 38.872 1004.65 39.048 1005.2 39.4C1005.77 39.7413 1006.2 40.1947 1006.5 40.76C1006.8 41.3253 1006.95 41.9333 1006.95 42.584C1006.95 42.7013 1006.94 42.8187 1006.93 42.936C1006.93 43.0533 1006.93 43.1867 1006.93 43.336H1000.61C1000.64 43.944 1000.78 44.4507 1001.03 44.856C1001.28 45.2507 1001.6 45.5493 1001.97 45.752C1002.36 45.9547 1002.76 46.056 1003.19 46.056C1003.74 46.056 1004.21 45.928 1004.58 45.672C1004.95 45.416 1005.22 45.0693 1005.4 44.632H1006.72C1006.51 45.368 1006.1 45.9813 1005.49 46.472C1004.89 46.952 1004.13 47.192 1003.19 47.192ZM1003.19 40.008C1002.55 40.008 1001.98 40.2053 1001.48 40.6C1000.98 40.984 1000.7 41.5493 1000.63 42.296H1005.62C1005.59 41.5813 1005.34 41.0213 1004.88 40.616C1004.42 40.2107 1003.86 40.008 1003.19 40.008ZM1008.73 47V39.064H1009.95L1010.03 40.488C1010.28 39.9867 1010.65 39.592 1011.13 39.304C1011.61 39.016 1012.15 38.872 1012.76 38.872C1013.7 38.872 1014.45 39.16 1015 39.736C1015.57 40.3013 1015.85 41.176 1015.85 42.36V47H1014.51V42.504C1014.51 40.8507 1013.82 40.024 1012.46 40.024C1011.77 40.024 1011.2 40.2747 1010.75 40.776C1010.3 41.2667 1010.07 41.9707 1010.07 42.888V47H1008.73ZM1021.02 47C1020.3 47 1019.73 46.824 1019.31 46.472C1018.89 46.12 1018.69 45.4853 1018.69 44.568V40.2H1017.31V39.064H1018.69L1018.86 37.16H1020.03V39.064H1022.37V40.2H1020.03V44.568C1020.03 45.0693 1020.13 45.4107 1020.33 45.592C1020.54 45.7627 1020.89 45.848 1021.41 45.848H1022.24V47H1021.02Z" fill="#A4A4A4"/>
<path d="M936.734 44.12C936.087 44.12 935.534 43.97 935.074 43.67C934.614 43.3633 934.257 42.94 934.004 42.4C933.757 41.8533 933.634 41.22 933.634 40.5C933.634 39.7867 933.757 39.1567 934.004 38.61C934.257 38.0633 934.614 37.64 935.074 37.34C935.534 37.0333 936.087 36.88 936.734 36.88C937.38 36.88 937.934 37.0333 938.394 37.34C938.854 37.64 939.207 38.0633 939.454 38.61C939.707 39.1567 939.834 39.7867 939.834 40.5C939.834 41.22 939.707 41.8533 939.454 42.4C939.207 42.94 938.854 43.3633 938.394 43.67C937.934 43.97 937.38 44.12 936.734 44.12ZM936.734 42.97C937.26 42.97 937.69 42.75 938.024 42.31C938.357 41.87 938.524 41.2667 938.524 40.5C938.524 39.7333 938.357 39.13 938.024 38.69C937.69 38.25 937.26 38.03 936.734 38.03C936.2 38.03 935.767 38.25 935.434 38.69C935.107 39.13 934.944 39.7333 934.944 40.5C934.944 41.2667 935.107 41.87 935.434 42.31C935.767 42.75 936.2 42.97 936.734 42.97ZM943.473 44.12C942.96 44.12 942.517 44.03 942.143 43.85C941.777 43.67 941.487 43.4233 941.273 43.11C941.067 42.79 940.947 42.43 940.913 42.03H942.163C942.223 42.3167 942.37 42.5567 942.603 42.75C942.837 42.9367 943.127 43.03 943.473 43.03C943.847 43.03 944.15 42.8933 944.383 42.62C944.623 42.3467 944.743 42.0067 944.743 41.6C944.743 41.18 944.623 40.8467 944.383 40.6C944.15 40.3533 943.853 40.23 943.493 40.23C943.193 40.23 942.933 40.3033 942.713 40.45C942.493 40.5967 942.337 40.78 942.243 41H941.013L941.613 37H945.493V38.12H942.573L942.253 39.74C942.4 39.58 942.6 39.45 942.853 39.35C943.107 39.2433 943.39 39.19 943.703 39.19C944.203 39.19 944.62 39.3033 944.953 39.53C945.287 39.75 945.54 40.0433 945.713 40.41C945.887 40.77 945.973 41.1633 945.973 41.59C945.973 42.0767 945.867 42.51 945.653 42.89C945.447 43.27 945.153 43.57 944.773 43.79C944.4 44.01 943.967 44.12 943.473 44.12Z" fill="#A4A4A4"/>
<circle cx="939.224" cy="38.7753" r="10.7245" stroke="#5448C8"/>
<circle cx="938.202" cy="8.16326" r="7.16326" fill="#5448C8" stroke="white" stroke-width="2"/>
<path d="M938.715 10.2041L946.368 30.6123L938.714 27.551L932.082 30.6123L938.715 10.2041Z" fill="#5448C8"/>
</svg>
