<svg width="1010" height="50" viewBox="0 0 1010 50" fill="none" xmlns="http://www.w3.org/2000/svg">
<line x1="2.5" y1="7.86133" x2="997.5" y2="7.86133" stroke="#E8EAEE" strokeWidth="5" stroke-linecap="round"/>
<line x1="2.5" y1="7.5" x2="994.5" y2="7.5" stroke="black" strokeWidth="5" stroke-linecap="round"/>
<path d="M910.184 45V33.8H913.864C914.739 33.8 915.459 33.944 916.024 34.232C916.589 34.52 917.005 34.9093 917.272 35.4C917.549 35.8907 917.688 36.4453 917.688 37.064C917.688 37.672 917.555 38.2213 917.288 38.712C917.021 39.2027 916.605 39.5973 916.04 39.896C915.475 40.184 914.749 40.328 913.864 40.328H911.528V45H910.184ZM911.528 39.192H913.832C914.728 39.192 915.363 39.0053 915.736 38.632C916.12 38.248 916.312 37.7253 916.312 37.064C916.312 36.392 916.12 35.8693 915.736 35.496C915.363 35.112 914.728 34.92 913.832 34.92H911.528V39.192ZM921.635 45.192C920.973 45.192 920.424 45.08 919.987 44.856C919.549 44.632 919.224 44.3333 919.011 43.96C918.797 43.5867 918.691 43.1813 918.691 42.744C918.691 41.9333 919 41.3093 919.619 40.872C920.237 40.4347 921.08 40.216 922.147 40.216H924.291V40.12C924.291 39.4267 924.109 38.904 923.747 38.552C923.384 38.1893 922.899 38.008 922.291 38.008C921.768 38.008 921.315 38.1413 920.931 38.408C920.557 38.664 920.323 39.0427 920.227 39.544H918.851C918.904 38.968 919.096 38.4827 919.427 38.088C919.768 37.6933 920.189 37.3947 920.691 37.192C921.192 36.9787 921.725 36.872 922.291 36.872C923.4 36.872 924.232 37.1707 924.787 37.768C925.352 38.3547 925.635 39.1387 925.635 40.12V45H924.435L924.355 43.576C924.131 44.024 923.8 44.408 923.363 44.728C922.936 45.0373 922.36 45.192 921.635 45.192ZM921.843 44.056C922.355 44.056 922.792 43.9227 923.155 43.656C923.528 43.3893 923.811 43.0427 924.003 42.616C924.195 42.1893 924.291 41.7413 924.291 41.272V41.256H922.259C921.469 41.256 920.909 41.3947 920.579 41.672C920.259 41.9387 920.099 42.2747 920.099 42.68C920.099 43.096 920.248 43.432 920.547 43.688C920.856 43.9333 921.288 44.056 921.843 44.056ZM928.281 48.52L930.249 44.232H929.785L926.633 37.064H928.089L930.713 43.24L933.497 37.064H934.889L929.689 48.52H928.281ZM936.307 45V37.064H937.523L937.619 38.216C937.875 37.7893 938.216 37.4587 938.643 37.224C939.07 36.9893 939.55 36.872 940.083 36.872C940.712 36.872 941.251 37 941.699 37.256C942.158 37.512 942.51 37.9013 942.755 38.424C943.032 37.944 943.411 37.5653 943.891 37.288C944.382 37.0107 944.91 36.872 945.475 36.872C946.424 36.872 947.182 37.16 947.747 37.736C948.312 38.3013 948.595 39.176 948.595 40.36V45H947.267V40.504C947.267 39.6827 947.102 39.064 946.771 38.648C946.44 38.232 945.966 38.024 945.347 38.024C944.707 38.024 944.174 38.2747 943.747 38.776C943.331 39.2667 943.123 39.9707 943.123 40.888V45H941.779V40.504C941.779 39.6827 941.614 39.064 941.283 38.648C940.952 38.232 940.478 38.024 939.859 38.024C939.23 38.024 938.702 38.2747 938.275 38.776C937.859 39.2667 937.651 39.9707 937.651 40.888V45H936.307ZM954.188 45.192C953.43 45.192 952.758 45.0213 952.172 44.68C951.585 44.328 951.121 43.8427 950.78 43.224C950.449 42.6053 950.284 41.8747 950.284 41.032C950.284 40.2 950.449 39.4747 950.78 38.856C951.11 38.2267 951.569 37.7413 952.156 37.4C952.753 37.048 953.441 36.872 954.22 36.872C954.988 36.872 955.649 37.048 956.204 37.4C956.769 37.7413 957.201 38.1947 957.5 38.76C957.798 39.3253 957.948 39.9333 957.948 40.584C957.948 40.7013 957.942 40.8187 957.932 40.936C957.932 41.0533 957.932 41.1867 957.932 41.336H951.612C951.644 41.944 951.782 42.4507 952.028 42.856C952.284 43.2507 952.598 43.5493 952.972 43.752C953.356 43.9547 953.761 44.056 954.188 44.056C954.742 44.056 955.206 43.928 955.58 43.672C955.953 43.416 956.225 43.0693 956.396 42.632H957.724C957.51 43.368 957.1 43.9813 956.492 44.472C955.894 44.952 955.126 45.192 954.188 45.192ZM954.188 38.008C953.548 38.008 952.977 38.2053 952.476 38.6C951.985 38.984 951.702 39.5493 951.628 40.296H956.62C956.588 39.5813 956.342 39.0213 955.884 38.616C955.425 38.2107 954.86 38.008 954.188 38.008ZM959.729 45V37.064H960.945L961.025 38.488C961.281 37.9867 961.649 37.592 962.129 37.304C962.609 37.016 963.153 36.872 963.761 36.872C964.7 36.872 965.446 37.16 966.001 37.736C966.566 38.3013 966.849 39.176 966.849 40.36V45H965.505V40.504C965.505 38.8507 964.822 38.024 963.457 38.024C962.774 38.024 962.204 38.2747 961.745 38.776C961.297 39.2667 961.073 39.9707 961.073 40.888V45H959.729ZM972.021 45C971.296 45 970.725 44.824 970.309 44.472C969.893 44.12 969.685 43.4853 969.685 42.568V38.2H968.309V37.064H969.685L969.861 35.16H971.029V37.064H973.365V38.2H971.029V42.568C971.029 43.0693 971.131 43.4107 971.333 43.592C971.536 43.7627 971.893 43.848 972.405 43.848H973.237V45H972.021Z" fill="#00509D"/>
<path d="M995.55 43.12C994.903 43.12 994.35 42.97 993.89 42.67C993.43 42.3633 993.073 41.94 992.82 41.4C992.573 40.8533 992.45 40.22 992.45 39.5C992.45 38.7867 992.573 38.1567 992.82 37.61C993.073 37.0633 993.43 36.64 993.89 36.34C994.35 36.0333 994.903 35.88 995.55 35.88C996.197 35.88 996.75 36.0333 997.21 36.34C997.67 36.64 998.023 37.0633 998.27 37.61C998.523 38.1567 998.65 38.7867 998.65 39.5C998.65 40.22 998.523 40.8533 998.27 41.4C998.023 41.94 997.67 42.3633 997.21 42.67C996.75 42.97 996.197 43.12 995.55 43.12ZM995.55 41.97C996.077 41.97 996.507 41.75 996.84 41.31C997.173 40.87 997.34 40.2667 997.34 39.5C997.34 38.7333 997.173 38.13 996.84 37.69C996.507 37.25 996.077 37.03 995.55 37.03C995.017 37.03 994.583 37.25 994.25 37.69C993.923 38.13 993.76 38.7333 993.76 39.5C993.76 40.2667 993.923 40.87 994.25 41.31C994.583 41.75 995.017 41.97 995.55 41.97ZM1002.98 43V41.7H999.53V40.68L1002.81 36H1004.26V40.59H1005.18V41.7H1004.26V43H1002.98ZM1000.9 40.59H1003.06V37.41L1000.9 40.59Z" fill="#00509D"/>
<circle cx="998.224" cy="38.7753" r="10.7245" stroke="black"/>
<circle cx="997.202" cy="8.16326" r="7.16326" fill="black" stroke="white" strokeWidth="2"/>
<path d="M997.715 10.2041L1005.37 30.6123L997.714 27.551L991.082 30.6123L997.715 10.2041Z" fill="black"/>
</svg>
