<svg width="1000" height="50" viewBox="0 0 1000 50" fill="none" xmlns="http://www.w3.org/2000/svg">
<line x1="2.5" y1="7.86133" x2="997.5" y2="7.86133" stroke="#E8EAEE" stroke-width="5" stroke-linecap="round"/>
<line x1="2.5" y1="7.5" x2="610.5" y2="7.5" stroke="black" stroke-width="5" stroke-linecap="round"/>
<path d="M633.232 45.192C632.464 45.192 631.765 45.0427 631.136 44.744C630.517 44.4347 630.021 43.96 629.648 43.32C629.275 42.68 629.088 41.864 629.088 40.872V33.8H630.432V40.888C630.432 41.976 630.693 42.7653 631.216 43.256C631.739 43.7467 632.421 43.992 633.264 43.992C634.107 43.992 634.784 43.7467 635.296 43.256C635.808 42.7653 636.064 41.976 636.064 40.888V33.8H637.408V40.872C637.408 41.864 637.221 42.68 636.848 43.32C636.475 43.96 635.973 44.4347 635.344 44.744C634.715 45.0427 634.011 45.192 633.232 45.192ZM639.604 48.52V37.064H640.82L640.948 38.376C641.204 37.992 641.567 37.6453 642.036 37.336C642.516 37.0267 643.124 36.872 643.86 36.872C644.649 36.872 645.337 37.0533 645.924 37.416C646.511 37.7787 646.964 38.2747 647.284 38.904C647.615 39.5333 647.78 40.248 647.78 41.048C647.78 41.848 647.615 42.5627 647.284 43.192C646.964 43.8107 646.505 44.3013 645.908 44.664C645.321 45.016 644.633 45.192 643.844 45.192C643.193 45.192 642.612 45.0587 642.1 44.792C641.599 44.5253 641.215 44.152 640.948 43.672V48.52H639.604ZM643.7 44.024C644.233 44.024 644.703 43.9013 645.108 43.656C645.513 43.4 645.833 43.048 646.068 42.6C646.303 42.152 646.42 41.6293 646.42 41.032C646.42 40.4347 646.303 39.912 646.068 39.464C645.833 39.016 645.513 38.6693 645.108 38.424C644.703 38.168 644.233 38.04 643.7 38.04C643.167 38.04 642.697 38.168 642.292 38.424C641.887 38.6693 641.567 39.016 641.332 39.464C641.097 39.912 640.98 40.4347 640.98 41.032C640.98 41.6293 641.097 42.152 641.332 42.6C641.567 43.048 641.887 43.4 642.292 43.656C642.697 43.9013 643.167 44.024 643.7 44.024ZM649.651 45V33.48H650.995V45H649.651ZM656.814 45.192C656.067 45.192 655.395 45.0213 654.798 44.68C654.2 44.3387 653.726 43.8587 653.374 43.24C653.032 42.6107 652.862 41.8747 652.862 41.032C652.862 40.1893 653.038 39.4587 653.39 38.84C653.742 38.2107 654.216 37.7253 654.814 37.384C655.422 37.0427 656.099 36.872 656.846 36.872C657.592 36.872 658.264 37.0427 658.862 37.384C659.459 37.7253 659.928 38.2107 660.27 38.84C660.622 39.4587 660.798 40.1893 660.798 41.032C660.798 41.8747 660.622 42.6107 660.27 43.24C659.918 43.8587 659.438 44.3387 658.83 44.68C658.232 45.0213 657.56 45.192 656.814 45.192ZM656.814 44.04C657.272 44.04 657.699 43.928 658.094 43.704C658.488 43.48 658.808 43.144 659.054 42.696C659.299 42.248 659.422 41.6933 659.422 41.032C659.422 40.3707 659.299 39.816 659.054 39.368C658.819 38.92 658.504 38.584 658.11 38.36C657.715 38.136 657.294 38.024 656.846 38.024C656.387 38.024 655.96 38.136 655.566 38.36C655.171 38.584 654.851 38.92 654.606 39.368C654.36 39.816 654.238 40.3707 654.238 41.032C654.238 41.6933 654.36 42.248 654.606 42.696C654.851 43.144 655.166 43.48 655.55 43.704C655.944 43.928 656.366 44.04 656.814 44.04ZM665.307 45.192C664.645 45.192 664.096 45.08 663.659 44.856C663.221 44.632 662.896 44.3333 662.683 43.96C662.469 43.5867 662.363 43.1813 662.363 42.744C662.363 41.9333 662.672 41.3093 663.291 40.872C663.909 40.4347 664.752 40.216 665.819 40.216H667.963V40.12C667.963 39.4267 667.781 38.904 667.419 38.552C667.056 38.1893 666.571 38.008 665.963 38.008C665.44 38.008 664.987 38.1413 664.603 38.408C664.229 38.664 663.995 39.0427 663.899 39.544H662.523C662.576 38.968 662.768 38.4827 663.099 38.088C663.44 37.6933 663.861 37.3947 664.363 37.192C664.864 36.9787 665.397 36.872 665.963 36.872C667.072 36.872 667.904 37.1707 668.459 37.768C669.024 38.3547 669.307 39.1387 669.307 40.12V45H668.107L668.027 43.576C667.803 44.024 667.472 44.408 667.035 44.728C666.608 45.0373 666.032 45.192 665.307 45.192ZM665.515 44.056C666.027 44.056 666.464 43.9227 666.827 43.656C667.2 43.3893 667.483 43.0427 667.675 42.616C667.867 42.1893 667.963 41.7413 667.963 41.272V41.256H665.931C665.141 41.256 664.581 41.3947 664.251 41.672C663.931 41.9387 663.771 42.2747 663.771 42.68C663.771 43.096 663.92 43.432 664.219 43.688C664.528 43.9333 664.96 44.056 665.515 44.056ZM674.923 45.192C674.133 45.192 673.44 45.0107 672.843 44.648C672.256 44.2853 671.797 43.7893 671.467 43.16C671.147 42.5307 670.987 41.816 670.987 41.016C670.987 40.216 671.152 39.5067 671.483 38.888C671.813 38.2587 672.272 37.768 672.859 37.416C673.445 37.0533 674.139 36.872 674.939 36.872C675.589 36.872 676.165 37.0053 676.667 37.272C677.168 37.5387 677.557 37.912 677.835 38.392V33.48H679.179V45H677.963L677.835 43.688C677.579 44.072 677.211 44.4187 676.731 44.728C676.251 45.0373 675.648 45.192 674.923 45.192ZM675.067 44.024C675.6 44.024 676.069 43.9013 676.475 43.656C676.891 43.4 677.211 43.048 677.435 42.6C677.669 42.152 677.787 41.6293 677.787 41.032C677.787 40.4347 677.669 39.912 677.435 39.464C677.211 39.016 676.891 38.6693 676.475 38.424C676.069 38.168 675.6 38.04 675.067 38.04C674.544 38.04 674.075 38.168 673.659 38.424C673.253 38.6693 672.933 39.016 672.699 39.464C672.475 39.912 672.363 40.4347 672.363 41.032C672.363 41.6293 672.475 42.152 672.699 42.6C672.933 43.048 673.253 43.4 673.659 43.656C674.075 43.9013 674.544 44.024 675.067 44.024ZM685.684 45V33.8H687.252L691.284 41.608L695.284 33.8H696.868V45H695.524V36.2L691.78 43.4H690.772L687.028 36.216V45H685.684ZM702.719 45.192C701.962 45.192 701.29 45.0213 700.703 44.68C700.116 44.328 699.652 43.8427 699.311 43.224C698.98 42.6053 698.815 41.8747 698.815 41.032C698.815 40.2 698.98 39.4747 699.311 38.856C699.642 38.2267 700.1 37.7413 700.687 37.4C701.284 37.048 701.972 36.872 702.751 36.872C703.519 36.872 704.18 37.048 704.735 37.4C705.3 37.7413 705.732 38.1947 706.031 38.76C706.33 39.3253 706.479 39.9333 706.479 40.584C706.479 40.7013 706.474 40.8187 706.463 40.936C706.463 41.0533 706.463 41.1867 706.463 41.336H700.143C700.175 41.944 700.314 42.4507 700.559 42.856C700.815 43.2507 701.13 43.5493 701.503 43.752C701.887 43.9547 702.292 44.056 702.719 44.056C703.274 44.056 703.738 43.928 704.111 43.672C704.484 43.416 704.756 43.0693 704.927 42.632H706.255C706.042 43.368 705.631 43.9813 705.023 44.472C704.426 44.952 703.658 45.192 702.719 45.192ZM702.719 38.008C702.079 38.008 701.508 38.2053 701.007 38.6C700.516 38.984 700.234 39.5493 700.159 40.296H705.151C705.119 39.5813 704.874 39.0213 704.415 38.616C703.956 38.2107 703.391 38.008 702.719 38.008ZM711.86 45.192C711.071 45.192 710.378 45.0107 709.78 44.648C709.194 44.2853 708.735 43.7893 708.404 43.16C708.084 42.5307 707.924 41.816 707.924 41.016C707.924 40.216 708.09 39.5067 708.42 38.888C708.751 38.2587 709.21 37.768 709.796 37.416C710.383 37.0533 711.076 36.872 711.876 36.872C712.527 36.872 713.103 37.0053 713.604 37.272C714.106 37.5387 714.495 37.912 714.772 38.392V33.48H716.116V45H714.9L714.772 43.688C714.516 44.072 714.148 44.4187 713.668 44.728C713.188 45.0373 712.586 45.192 711.86 45.192ZM712.004 44.024C712.538 44.024 713.007 43.9013 713.412 43.656C713.828 43.4 714.148 43.048 714.372 42.6C714.607 42.152 714.724 41.6293 714.724 41.032C714.724 40.4347 714.607 39.912 714.372 39.464C714.148 39.016 713.828 38.6693 713.412 38.424C713.007 38.168 712.538 38.04 712.004 38.04C711.482 38.04 711.012 38.168 710.596 38.424C710.191 38.6693 709.871 39.016 709.636 39.464C709.412 39.912 709.3 40.4347 709.3 41.032C709.3 41.6293 709.412 42.152 709.636 42.6C709.871 43.048 710.191 43.4 710.596 43.656C711.012 43.9013 711.482 44.024 712.004 44.024ZM719.123 35.304C718.856 35.304 718.632 35.2187 718.451 35.048C718.28 34.8667 718.195 34.6427 718.195 34.376C718.195 34.12 718.28 33.9067 718.451 33.736C718.632 33.5653 718.856 33.48 719.123 33.48C719.379 33.48 719.598 33.5653 719.779 33.736C719.96 33.9067 720.051 34.12 720.051 34.376C720.051 34.6427 719.96 34.8667 719.779 35.048C719.598 35.2187 719.379 35.304 719.123 35.304ZM718.451 45V37.064H719.795V45H718.451ZM724.775 45.192C724.114 45.192 723.565 45.08 723.127 44.856C722.69 44.632 722.365 44.3333 722.151 43.96C721.938 43.5867 721.831 43.1813 721.831 42.744C721.831 41.9333 722.141 41.3093 722.759 40.872C723.378 40.4347 724.221 40.216 725.287 40.216H727.431V40.12C727.431 39.4267 727.25 38.904 726.887 38.552C726.525 38.1893 726.039 38.008 725.431 38.008C724.909 38.008 724.455 38.1413 724.071 38.408C723.698 38.664 723.463 39.0427 723.367 39.544H721.991C722.045 38.968 722.237 38.4827 722.567 38.088C722.909 37.6933 723.33 37.3947 723.831 37.192C724.333 36.9787 724.866 36.872 725.431 36.872C726.541 36.872 727.373 37.1707 727.927 37.768C728.493 38.3547 728.775 39.1387 728.775 40.12V45H727.575L727.495 43.576C727.271 44.024 726.941 44.408 726.503 44.728C726.077 45.0373 725.501 45.192 724.775 45.192ZM724.983 44.056C725.495 44.056 725.933 43.9227 726.295 43.656C726.669 43.3893 726.951 43.0427 727.143 42.616C727.335 42.1893 727.431 41.7413 727.431 41.272V41.256H725.399C724.61 41.256 724.05 41.3947 723.719 41.672C723.399 41.9387 723.239 42.2747 723.239 42.68C723.239 43.096 723.389 43.432 723.687 43.688C723.997 43.9333 724.429 44.056 724.983 44.056Z" fill="#00509D"/>
<path d="M608.55 43.12C607.903 43.12 607.35 42.97 606.89 42.67C606.43 42.3633 606.073 41.94 605.82 41.4C605.573 40.8533 605.45 40.22 605.45 39.5C605.45 38.7867 605.573 38.1567 605.82 37.61C606.073 37.0633 606.43 36.64 606.89 36.34C607.35 36.0333 607.903 35.88 608.55 35.88C609.197 35.88 609.75 36.0333 610.21 36.34C610.67 36.64 611.023 37.0633 611.27 37.61C611.523 38.1567 611.65 38.7867 611.65 39.5C611.65 40.22 611.523 40.8533 611.27 41.4C611.023 41.94 610.67 42.3633 610.21 42.67C609.75 42.97 609.197 43.12 608.55 43.12ZM608.55 41.97C609.077 41.97 609.507 41.75 609.84 41.31C610.173 40.87 610.34 40.2667 610.34 39.5C610.34 38.7333 610.173 38.13 609.84 37.69C609.507 37.25 609.077 37.03 608.55 37.03C608.017 37.03 607.583 37.25 607.25 37.69C606.923 38.13 606.76 38.7333 606.76 39.5C606.76 40.2667 606.923 40.87 607.25 41.31C607.583 41.75 608.017 41.97 608.55 41.97ZM615.07 43.12C614.61 43.12 614.193 43.04 613.82 42.88C613.446 42.7133 613.146 42.46 612.92 42.12C612.693 41.78 612.573 41.3533 612.56 40.84H613.82C613.826 41.18 613.936 41.4667 614.15 41.7C614.37 41.9267 614.676 42.04 615.07 42.04C615.443 42.04 615.73 41.9367 615.93 41.73C616.13 41.5233 616.23 41.2633 616.23 40.95C616.23 40.5833 616.096 40.3067 615.83 40.12C615.57 39.9267 615.233 39.83 614.82 39.83H614.3V38.78H614.83C615.17 38.78 615.453 38.7 615.68 38.54C615.906 38.38 616.02 38.1433 616.02 37.83C616.02 37.57 615.933 37.3633 615.76 37.21C615.593 37.05 615.36 36.97 615.06 36.97C614.733 36.97 614.476 37.0667 614.29 37.26C614.11 37.4533 614.01 37.69 613.99 37.97H612.74C612.766 37.3233 612.99 36.8133 613.41 36.44C613.836 36.0667 614.386 35.88 615.06 35.88C615.54 35.88 615.943 35.9667 616.27 36.14C616.603 36.3067 616.853 36.53 617.02 36.81C617.193 37.09 617.28 37.4 617.28 37.74C617.28 38.1333 617.17 38.4667 616.95 38.74C616.736 39.0067 616.47 39.1867 616.15 39.28C616.543 39.36 616.863 39.5533 617.11 39.86C617.356 40.16 617.48 40.54 617.48 41C617.48 41.3867 617.386 41.74 617.2 42.06C617.013 42.38 616.74 42.6367 616.38 42.83C616.026 43.0233 615.59 43.12 615.07 43.12Z" fill="#00509D"/>
<circle cx="611.224" cy="38.7753" r="10.7245" stroke="black"/>
<circle cx="610.202" cy="8.16326" r="7.16326" fill="black" stroke="white" stroke-width="2"/>
<path d="M610.715 10.2041L618.368 30.6123L610.714 27.551L604.082 30.6123L610.715 10.2041Z" fill="black"/>
</svg>
