<svg width="1008" height="50" viewBox="0 0 1008 50" fill="none" xmlns="http://www.w3.org/2000/svg">
<line x1="10.5" y1="7.86133" x2="1005.5" y2="7.86133" stroke="#E8EAEE" strokeWidth="5" stroke-linecap="round"/>
<line x1="10.5" y1="7.5" x2="8.5" y2="7.5" stroke="black" strokeWidth="5" stroke-linecap="round"/>
<path d="M29.184 45V33.8H33.12C33.9093 33.8 34.56 33.928 35.072 34.184C35.5947 34.4293 35.984 34.7707 36.24 35.208C36.496 35.6347 36.624 36.1147 36.624 36.648C36.624 37.3733 36.4267 37.944 36.032 38.36C35.648 38.776 35.184 39.064 34.64 39.224C35.056 39.2987 35.4347 39.464 35.776 39.72C36.1173 39.976 36.384 40.296 36.576 40.68C36.7787 41.064 36.88 41.4853 36.88 41.944C36.88 42.5093 36.7413 43.0267 36.464 43.496C36.1867 43.9547 35.776 44.3227 35.232 44.6C34.688 44.8667 34.0267 45 33.248 45H29.184ZM30.528 38.696H33.024C33.7387 38.696 34.288 38.5307 34.672 38.2C35.056 37.8587 35.248 37.3893 35.248 36.792C35.248 36.2267 35.056 35.7733 34.672 35.432C34.2987 35.0907 33.7333 34.92 32.976 34.92H30.528V38.696ZM30.528 43.88H33.104C33.872 43.88 34.464 43.704 34.88 43.352C35.296 42.9893 35.504 42.488 35.504 41.848C35.504 41.2187 35.2853 40.7173 34.848 40.344C34.4107 39.96 33.8187 39.768 33.072 39.768H30.528V43.88ZM41.369 45.192C40.7077 45.192 40.1583 45.08 39.721 44.856C39.2837 44.632 38.9583 44.3333 38.745 43.96C38.5317 43.5867 38.425 43.1813 38.425 42.744C38.425 41.9333 38.7343 41.3093 39.353 40.872C39.9717 40.4347 40.8143 40.216 41.881 40.216H44.025V40.12C44.025 39.4267 43.8437 38.904 43.481 38.552C43.1183 38.1893 42.633 38.008 42.025 38.008C41.5023 38.008 41.049 38.1413 40.665 38.408C40.2917 38.664 40.057 39.0427 39.961 39.544H38.585C38.6383 38.968 38.8303 38.4827 39.161 38.088C39.5023 37.6933 39.9237 37.3947 40.425 37.192C40.9263 36.9787 41.4597 36.872 42.025 36.872C43.1343 36.872 43.9663 37.1707 44.521 37.768C45.0863 38.3547 45.369 39.1387 45.369 40.12V45H44.169L44.089 43.576C43.865 44.024 43.5343 44.408 43.097 44.728C42.6703 45.0373 42.0943 45.192 41.369 45.192ZM41.577 44.056C42.089 44.056 42.5263 43.9227 42.889 43.656C43.2623 43.3893 43.545 43.0427 43.737 42.616C43.929 42.1893 44.025 41.7413 44.025 41.272V41.256H41.993C41.2037 41.256 40.6437 41.3947 40.313 41.672C39.993 41.9387 39.833 42.2747 39.833 42.68C39.833 43.096 39.9823 43.432 40.281 43.688C40.5903 43.9333 41.0223 44.056 41.577 44.056ZM50.4253 45.192C49.4759 45.192 48.6866 44.952 48.0573 44.472C47.4279 43.992 47.0599 43.3413 46.9533 42.52H48.3293C48.4146 42.936 48.6333 43.2987 48.9853 43.608C49.3479 43.9067 49.8333 44.056 50.4413 44.056C51.0066 44.056 51.4226 43.9387 51.6893 43.704C51.9559 43.4587 52.0893 43.1707 52.0893 42.84C52.0893 42.36 51.9133 42.04 51.5613 41.88C51.2199 41.72 50.7346 41.576 50.1053 41.448C49.6786 41.3627 49.2519 41.24 48.8253 41.08C48.3986 40.92 48.0413 40.696 47.7533 40.408C47.4653 40.1093 47.3213 39.72 47.3213 39.24C47.3213 38.5467 47.5773 37.9813 48.0893 37.544C48.6119 37.096 49.3159 36.872 50.2013 36.872C51.0439 36.872 51.7319 37.0853 52.2653 37.512C52.8093 37.928 53.1239 38.5253 53.2093 39.304H51.8813C51.8279 38.8987 51.6519 38.584 51.3533 38.36C51.0653 38.1253 50.6759 38.008 50.1853 38.008C49.7053 38.008 49.3319 38.1093 49.0653 38.312C48.8093 38.5147 48.6813 38.7813 48.6813 39.112C48.6813 39.432 48.8466 39.6827 49.1773 39.864C49.5186 40.0453 49.9773 40.2 50.5533 40.328C51.0439 40.4347 51.5079 40.568 51.9453 40.728C52.3933 40.8773 52.7559 41.1067 53.0333 41.416C53.3213 41.7147 53.4653 42.152 53.4653 42.728C53.4759 43.4427 53.2039 44.0347 52.6493 44.504C52.1053 44.9627 51.3639 45.192 50.4253 45.192ZM56.2013 35.304C55.9346 35.304 55.7106 35.2187 55.5293 35.048C55.3586 34.8667 55.2733 34.6427 55.2733 34.376C55.2733 34.12 55.3586 33.9067 55.5293 33.736C55.7106 33.5653 55.9346 33.48 56.2013 33.48C56.4573 33.48 56.6759 33.5653 56.8573 33.736C57.0386 33.9067 57.1293 34.12 57.1293 34.376C57.1293 34.6427 57.0386 34.8667 56.8573 35.048C56.6759 35.2187 56.4573 35.304 56.2013 35.304ZM55.5293 45V37.064H56.8733V45H55.5293ZM62.8614 45.192C62.104 45.192 61.4214 45.0213 60.8134 44.68C60.216 44.328 59.7414 43.8427 59.3894 43.224C59.048 42.5947 58.8774 41.864 58.8774 41.032C58.8774 40.2 59.048 39.4747 59.3894 38.856C59.7414 38.2267 60.216 37.7413 60.8134 37.4C61.4214 37.048 62.104 36.872 62.8614 36.872C63.8 36.872 64.5894 37.1173 65.2294 37.608C65.88 38.0987 66.2907 38.7547 66.4614 39.576H65.0854C64.9787 39.0853 64.7174 38.7067 64.3014 38.44C63.8854 38.1627 63.4 38.024 62.8454 38.024C62.3974 38.024 61.976 38.136 61.5814 38.36C61.1867 38.584 60.8667 38.92 60.6214 39.368C60.376 39.816 60.2534 40.3707 60.2534 41.032C60.2534 41.6933 60.376 42.248 60.6214 42.696C60.8667 43.144 61.1867 43.4853 61.5814 43.72C61.976 43.944 62.3974 44.056 62.8454 44.056C63.4 44.056 63.8854 43.9227 64.3014 43.656C64.7174 43.3787 64.9787 42.9893 65.0854 42.488H66.4614C66.3014 43.288 65.896 43.9387 65.2454 44.44C64.5947 44.9413 63.8 45.192 62.8614 45.192ZM73.3888 35.304C73.1221 35.304 72.8981 35.2187 72.7168 35.048C72.5461 34.8667 72.4608 34.6427 72.4608 34.376C72.4608 34.12 72.5461 33.9067 72.7168 33.736C72.8981 33.5653 73.1221 33.48 73.3888 33.48C73.6448 33.48 73.8634 33.5653 74.0448 33.736C74.2261 33.9067 74.3168 34.12 74.3168 34.376C74.3168 34.6427 74.2261 34.8667 74.0448 35.048C73.8634 35.2187 73.6448 35.304 73.3888 35.304ZM72.7168 45V37.064H74.0608V45H72.7168ZM76.4009 45V37.064H77.6169L77.6969 38.488C77.9529 37.9867 78.3209 37.592 78.8009 37.304C79.2809 37.016 79.8249 36.872 80.4329 36.872C81.3715 36.872 82.1182 37.16 82.6729 37.736C83.2382 38.3013 83.5209 39.176 83.5209 40.36V45H82.1769V40.504C82.1769 38.8507 81.4942 38.024 80.1289 38.024C79.4462 38.024 78.8755 38.2747 78.4169 38.776C77.9689 39.2667 77.7449 39.9707 77.7449 40.888V45H76.4009ZM85.9891 45V38.2H84.7891V37.064H85.9891V35.688C85.9891 34.92 86.1811 34.36 86.5651 34.008C86.9491 33.656 87.5091 33.48 88.2451 33.48H89.0451V34.632H88.4531C88.0478 34.632 87.7598 34.7173 87.5891 34.888C87.4185 35.048 87.3331 35.3253 87.3331 35.72V37.064H89.2851V38.2H87.3331V45H85.9891ZM94.1888 45.192C93.4421 45.192 92.7701 45.0213 92.1728 44.68C91.5754 44.3387 91.1008 43.8587 90.7488 43.24C90.4074 42.6107 90.2368 41.8747 90.2368 41.032C90.2368 40.1893 90.4128 39.4587 90.7648 38.84C91.1168 38.2107 91.5914 37.7253 92.1888 37.384C92.7968 37.0427 93.4741 36.872 94.2208 36.872C94.9674 36.872 95.6394 37.0427 96.2368 37.384C96.8341 37.7253 97.3034 38.2107 97.6448 38.84C97.9968 39.4587 98.1728 40.1893 98.1728 41.032C98.1728 41.8747 97.9968 42.6107 97.6448 43.24C97.2928 43.8587 96.8128 44.3387 96.2048 44.68C95.6074 45.0213 94.9354 45.192 94.1888 45.192ZM94.1888 44.04C94.6474 44.04 95.0741 43.928 95.4688 43.704C95.8634 43.48 96.1834 43.144 96.4288 42.696C96.6741 42.248 96.7968 41.6933 96.7968 41.032C96.7968 40.3707 96.6741 39.816 96.4288 39.368C96.1941 38.92 95.8794 38.584 95.4848 38.36C95.0901 38.136 94.6688 38.024 94.2208 38.024C93.7621 38.024 93.3354 38.136 92.9408 38.36C92.5461 38.584 92.2261 38.92 91.9808 39.368C91.7354 39.816 91.6128 40.3707 91.6128 41.032C91.6128 41.6933 91.7354 42.248 91.9808 42.696C92.2261 43.144 92.5408 43.48 92.9248 43.704C93.3194 43.928 93.7408 44.04 94.1888 44.04Z" fill="#00509D"/>
<path d="M8.55 43.12C7.90333 43.12 7.35 42.97 6.89 42.67C6.43 42.3633 6.07333 41.94 5.82 41.4C5.57333 40.8533 5.45 40.22 5.45 39.5C5.45 38.7867 5.57333 38.1567 5.82 37.61C6.07333 37.0633 6.43 36.64 6.89 36.34C7.35 36.0333 7.90333 35.88 8.55 35.88C9.19667 35.88 9.75 36.0333 10.21 36.34C10.67 36.64 11.0233 37.0633 11.27 37.61C11.5233 38.1567 11.65 38.7867 11.65 39.5C11.65 40.22 11.5233 40.8533 11.27 41.4C11.0233 41.94 10.67 42.3633 10.21 42.67C9.75 42.97 9.19667 43.12 8.55 43.12ZM8.55 41.97C9.07667 41.97 9.50667 41.75 9.84 41.31C10.1733 40.87 10.34 40.2667 10.34 39.5C10.34 38.7333 10.1733 38.13 9.84 37.69C9.50667 37.25 9.07667 37.03 8.55 37.03C8.01667 37.03 7.58333 37.25 7.25 37.69C6.92333 38.13 6.76 38.7333 6.76 39.5C6.76 40.2667 6.92333 40.87 7.25 41.31C7.58333 41.75 8.01667 41.97 8.55 41.97ZM13.5396 43V37.46L12.3896 37.73V36.75L14.0796 36H14.8696V43H13.5396Z" fill="#00509D"/>
<circle cx="11.2245" cy="38.7753" r="10.7245" stroke="black"/>
<circle cx="10.2023" cy="8.16326" r="7.16326" fill="black" stroke="white" strokeWidth="2"/>
<path d="M10.7146 10.2041L18.3677 30.6123L10.7144 27.551L4.08203 30.6123L10.7146 10.2041Z" fill="black"/>
</svg>
