<svg width="15" height="17" viewBox="0 0 15 17" fill="none" xmlns="http://www.w3.org/2000/svg">
<path d="M1.82155 16.5C1.29921 16.5 0.865034 16.327 0.51902 15.981C0.173007 15.6357 0 15.2015 0 14.6784V13.5032C0 13.3032 0.0730391 13.1265 0.219117 12.9731C0.365196 12.8189 0.538202 12.7418 0.738138 12.7418H2.67478V1.28351C2.67478 1.02234 2.74376 0.864827 2.88173 0.81097C3.02043 0.757112 3.182 0.814659 3.36644 0.983608L3.82792 1.46832L4.70328 0.638332C4.7955 0.546111 4.89916 0.5 5.01425 0.5C5.13008 0.5 5.2341 0.546111 5.32632 0.638332L6.20169 1.46832L7.07816 0.638332C7.17038 0.546111 7.27403 0.5 7.38913 0.5C7.50422 0.5 7.60824 0.546111 7.7012 0.638332L8.55333 1.46832L9.4298 0.638332C9.52202 0.546111 9.62567 0.5 9.74077 0.5C9.8566 0.5 9.96025 0.546111 10.0517 0.638332L10.9282 1.46832L11.8047 0.638332C11.8969 0.546111 12.0006 0.5 12.1156 0.5C12.2307 0.5 12.3344 0.546111 12.4266 0.638332L13.3031 1.46832L13.7646 1.00685C13.949 0.837898 14.1065 0.784041 14.2371 0.845276C14.3677 0.906511 14.433 1.06034 14.433 1.30675V14.6784C14.433 15.2015 14.26 15.6357 13.914 15.981C13.5679 16.327 13.1338 16.5 12.6114 16.5H1.82155ZM12.6347 15.5549C12.8958 15.5549 13.1109 15.4704 13.2798 15.3015C13.4488 15.1318 13.5333 14.9164 13.5333 14.6552V1.99841H3.59662V12.7418H10.9747C11.1746 12.7418 11.3476 12.8189 11.4937 12.9731C11.639 13.1265 11.7117 13.3032 11.7117 13.5032V14.6552C11.7117 14.9164 11.7966 15.1318 11.9662 15.3015C12.1352 15.4704 12.358 15.5549 12.6347 15.5549ZM5.27984 5.18004C5.15664 5.18004 5.04892 5.12987 4.9567 5.02953C4.86448 4.92993 4.81837 4.82628 4.81837 4.71856C4.81837 4.59536 4.86854 4.48395 4.96887 4.38435C5.06847 4.28476 5.17988 4.23496 5.30308 4.23496H9.22175C9.32946 4.23496 9.43349 4.28476 9.53382 4.38435C9.63342 4.48395 9.68322 4.59536 9.68322 4.71856C9.68322 4.84177 9.63342 4.94949 9.53382 5.04171C9.43349 5.13393 9.32946 5.18004 9.22175 5.18004H5.27984ZM5.27984 7.94667C5.15664 7.94667 5.04892 7.8965 4.9567 7.79617C4.86448 7.69657 4.81837 7.59291 4.81837 7.4852C4.81837 7.36199 4.86854 7.25059 4.96887 7.15099C5.06847 7.05139 5.17988 7.00159 5.30308 7.00159H9.22175C9.32946 7.00159 9.43349 7.05139 9.53382 7.15099C9.63342 7.25059 9.68322 7.36199 9.68322 7.4852C9.68322 7.59291 9.63342 7.69657 9.53382 7.79617C9.43349 7.8965 9.32946 7.94667 9.22175 7.94667H5.27984ZM11.6431 5.43346C11.4432 5.43346 11.2742 5.36042 11.1363 5.21434C10.9976 5.06827 10.9282 4.90301 10.9282 4.71856C10.9282 4.51863 10.9976 4.34968 11.1363 4.21172C11.2742 4.07302 11.4432 4.00367 11.6431 4.00367C11.8275 4.00367 11.9928 4.07302 12.1389 4.21172C12.285 4.34968 12.358 4.51863 12.358 4.71856C12.358 4.90301 12.285 5.06827 12.1389 5.21434C11.9928 5.36042 11.8275 5.43346 11.6431 5.43346ZM11.6431 8.2001C11.4432 8.2001 11.2742 8.12706 11.1363 7.98098C10.9976 7.8349 10.9282 7.66964 10.9282 7.4852C10.9282 7.28526 10.9976 7.11226 11.1363 6.96618C11.2742 6.8201 11.4432 6.74706 11.6431 6.74706C11.8275 6.74706 11.9928 6.8201 12.1389 6.96618C12.285 7.11226 12.358 7.28526 12.358 7.4852C12.358 7.66964 12.285 7.8349 12.1389 7.98098C11.9928 8.12706 11.8275 8.2001 11.6431 8.2001Z" fill="black"/>
</svg>
