<svg width="15" height="12" viewBox="0 0 15 12" fill="none" xmlns="http://www.w3.org/2000/svg">
<path fillRule="evenodd" clipRule="evenodd" d="M9.48608 0.0546691C9.82942 -0.00414148 10.2139 -0.0237778 10.5757 0.0374371C11.2219 0.146764 11.8188 0.447109 12.2907 0.897401C12.5991 0.904377 12.9022 0.843614 13.1704 0.756993C13.3974 0.683684 13.5891 0.595165 13.7235 0.525174C13.7903 0.490373 13.8419 0.460686 13.8755 0.440588C13.8922 0.430555 13.9044 0.422961 13.9116 0.418375L13.918 0.414281C14.1185 0.280747 14.3854 0.306736 14.5562 0.476589C14.727 0.646482 14.7545 0.91319 14.622 1.11438C14.4817 1.32731 14.287 1.7069 14.0688 2.1322C14.0345 2.19908 13.9996 2.26708 13.9643 2.33574C13.8391 2.57884 13.7108 2.82454 13.5912 3.03534C13.5161 3.1677 13.4358 3.30207 13.3548 3.41819V3.60309C13.36 4.28223 13.2821 4.95784 13.124 5.6151C13.0245 6.02864 12.8933 6.43492 12.7311 6.83025C12.3107 7.85453 11.6905 8.78477 10.9066 9.56665C10.1227 10.3485 9.19088 10.9664 8.16553 11.3841C7.14109 11.8015 6.04383 12.0107 4.93772 11.9996C3.33424 12.001 1.76449 11.539 0.417363 10.6692C0.218946 10.5411 0.135406 10.2929 0.215999 10.0708C0.296593 9.84884 0.519925 9.712 0.754318 9.74101C0.957165 9.76611 1.1614 9.77837 1.36579 9.7777C2.1002 9.77564 2.82061 9.61337 3.4783 9.30768C3.26925 9.21252 3.06966 9.09518 2.88316 8.95688C2.33498 8.55039 1.92713 7.98313 1.71637 7.33404C1.66161 7.16536 1.69905 6.98033 1.81508 6.84621C1.81716 6.84381 1.81926 6.84144 1.82138 6.83908C1.69743 6.72856 1.58146 6.60822 1.47469 6.47881C0.994301 5.89652 0.729785 5.16618 0.725881 4.41132L0.725867 4.4087L0.725874 4.37494C0.725874 4.19538 0.82093 4.02925 0.975721 3.93827C1.01496 3.91521 1.05655 3.89785 1.09933 3.8862C0.870842 3.43029 0.75202 2.92686 0.752887 2.41612C0.752617 1.83751 0.903757 1.26889 1.19129 0.766769C1.2743 0.621816 1.42344 0.527107 1.58993 0.513616C1.75642 0.500125 1.91886 0.569587 2.02412 0.699285C2.67418 1.50025 3.48546 2.15551 4.40527 2.62249C4.87811 2.86254 5.37418 3.05009 5.8846 3.18275C6.17077 3.25712 6.46145 3.31425 6.75507 3.35371C6.74214 2.86526 6.83859 2.37707 7.04101 1.92599C7.33795 1.26427 7.84612 0.719819 8.48583 0.378032C8.75674 0.233286 9.11638 0.117997 9.48608 0.0546691ZM1.86942 5.15183C1.95697 5.39826 2.08723 5.62944 2.2561 5.83414C2.58791 6.23633 3.04846 6.51158 3.55985 6.61331C3.78763 6.65862 3.95541 6.85304 3.96691 7.08501C3.97841 7.31697 3.83067 7.52703 3.60849 7.59465C3.42446 7.65065 3.23592 7.68967 3.04523 7.71135C3.17124 7.87377 3.31946 8.01927 3.48655 8.14317C3.86554 8.4242 4.32271 8.5801 4.79445 8.58918C5.00848 8.5933 5.19681 8.73153 5.2649 8.93448C5.33299 9.13743 5.26614 9.36128 5.09791 9.49365C4.38936 10.0512 3.57003 10.4399 2.70184 10.6384C3.42141 10.8689 4.17607 10.9875 4.93941 10.9866L4.94529 10.9866C5.91782 10.9967 6.88262 10.8129 7.78333 10.446C8.68404 10.079 9.5026 9.53626 10.1912 8.84942C10.8798 8.16258 11.4247 7.34542 11.7939 6.44565C11.9364 6.09837 12.0517 5.74148 12.1391 5.3782C12.2781 4.80026 12.3465 4.20619 12.3418 3.609L12.3418 3.60504V3.24711C12.3418 3.1243 12.3864 3.00566 12.4674 2.9133C12.5141 2.85992 12.596 2.73663 12.7101 2.53544C12.8186 2.34423 12.9387 2.11468 13.0636 1.87211C13.0711 1.85744 13.0787 1.84269 13.0863 1.82788C12.7624 1.89821 12.3953 1.93508 12.0105 1.89349C11.8886 1.88032 11.7757 1.82339 11.6926 1.73327C11.3529 1.36498 10.9007 1.11983 10.4067 1.03626C10.1876 0.999181 9.9226 1.00767 9.65711 1.05314C9.36867 1.10255 9.11764 1.18901 8.96321 1.27152C8.52135 1.5076 8.17034 1.88366 7.96524 2.34072C7.76014 2.79779 7.71254 3.31 7.82991 3.79703C7.86733 3.9523 7.82933 4.11612 7.72736 4.23906C7.6254 4.36199 7.47143 4.42963 7.31192 4.42156C6.74232 4.39275 6.17876 4.30587 5.62978 4.16319C5.04906 4.01226 4.48465 3.79888 3.94669 3.52576C3.15465 3.12366 2.43335 2.59885 1.80876 1.97234C1.78027 2.11795 1.76581 2.26655 1.76591 2.4161L1.7659 2.4174C1.7652 2.78932 1.85647 3.15565 2.03159 3.48376C2.20672 3.81188 2.46026 4.0916 2.76964 4.29803C2.9574 4.4233 3.03961 4.6577 2.97123 4.87281C2.90285 5.08792 2.70038 5.23182 2.47475 5.22568C2.27039 5.22012 2.06775 5.19527 1.86942 5.15183Z" fill="black"/>
</svg>
