<svg width="26" height="17" viewBox="0 0 26 17" fill="none" xmlns="http://www.w3.org/2000/svg">
<path d="M17 5.83333L23.0707 2.79867C23.2739 2.69711 23.4997 2.64917 23.7267 2.6594C23.9536 2.66962 24.1742 2.73766 24.3675 2.85707C24.5608 2.97649 24.7203 3.1433 24.831 3.3417C24.9417 3.54009 24.9999 3.76348 25 3.99067V13.0093C24.9999 13.2365 24.9417 13.4599 24.831 13.6583C24.7203 13.8567 24.5608 14.0235 24.3675 14.1429C24.1742 14.2623 23.9536 14.3304 23.7267 14.3406C23.4997 14.3508 23.2739 14.3029 23.0707 14.2013L17 11.1667V5.83333ZM3.66667 16.5H14.3333C15.0406 16.5 15.7189 16.219 16.219 15.719C16.719 15.2189 17 14.5406 17 13.8333V3.16667C17 2.45942 16.719 1.78115 16.219 1.28105C15.7189 0.780951 15.0406 0.5 14.3333 0.5H3.66667C2.95942 0.5 2.28115 0.780951 1.78105 1.28105C1.28095 1.78115 1 2.45942 1 3.16667V13.8333C1 14.5406 1.28095 15.2189 1.78105 15.719C2.28115 16.219 2.95942 16.5 3.66667 16.5Z" stroke="#00509D" stroke-linecap="round" stroke-linejoin="round"/>
</svg>
