<svg width="52" height="34" viewBox="0 0 52 34" fill="none" xmlns="http://www.w3.org/2000/svg">
<path d="M47.4226 33.4444H4.97412C2.67109 33.4444 0.805859 31.5791 0.805859 29.2761V4.70068C0.805859 2.39765 2.67109 0.532422 4.97412 0.532422H47.4226C49.7256 0.532422 51.5908 2.39765 51.5908 4.70068V29.2761C51.5908 31.5791 49.7256 33.4444 47.4226 33.4444Z" stroke="black" stroke-width="0.6" stroke-linecap="round" stroke-linejoin="round"/>
<path d="M7.21094 22.5732H16.1475" stroke="black" stroke-width="0.6" stroke-linecap="round" stroke-linejoin="round"/>
<path d="M7.21094 27.041H27.3181" stroke="black" stroke-width="0.6" stroke-linecap="round" stroke-linejoin="round"/>
<path d="M37.3668 20.6398C38.0352 20.6398 38.6489 20.8614 39.1527 21.2307C38.5558 21.8777 38.1839 22.7361 38.1839 23.691C38.1839 24.646 38.5558 25.5044 39.1527 26.1514C38.6489 26.5207 38.0352 26.7422 37.3668 26.7422C35.6826 26.7422 34.3156 25.3752 34.3156 23.691C34.3156 22.0069 35.6826 20.6398 37.3668 20.6398Z" stroke="black" stroke-width="0.6" stroke-linecap="round" stroke-linejoin="round"/>
<path d="M7.21094 15.8711H11.6792" stroke="black" stroke-width="0.6" stroke-linecap="round" stroke-linejoin="round"/>
<path d="M16.1465 15.8711H20.6147" stroke="black" stroke-width="0.6" stroke-linecap="round" stroke-linejoin="round"/>
<path d="M25.0801 15.8711H29.5483" stroke="black" stroke-width="0.6" stroke-linecap="round" stroke-linejoin="round"/>
<path d="M44.8907 23.691C44.8907 25.3752 43.5236 26.7422 41.8395 26.7422C40.1553 26.7422 38.7883 25.3752 38.7883 23.691C38.7883 22.0069 40.1553 20.6398 41.8395 20.6398C43.5236 20.6398 44.8907 22.0069 44.8907 23.691Z" stroke="black" stroke-width="0.6" stroke-linecap="round" stroke-linejoin="round"/>
</svg>
