<svg width="24" height="25" viewBox="0 0 24 25" fill="none" xmlns="http://www.w3.org/2000/svg">
<path d="M12.0051 0.933717C9.63128 0.93271 7.31051 1.63578 5.33634 2.95397C3.36217 4.27216 1.82331 6.14624 0.914427 8.33916C0.00554422 10.5321 -0.232527 12.9453 0.230333 15.2736C0.693194 17.6018 1.83619 19.7405 3.51472 21.419C5.19326 23.0975 7.33192 24.2405 9.66017 24.7034C11.9884 25.1662 14.4016 24.9282 16.5946 24.0193C18.7875 23.1104 20.6616 21.5715 21.9798 19.5974C23.2979 17.6232 24.001 15.3024 24 12.9286C24 9.74737 22.7363 6.69643 20.4868 4.44695C18.2373 2.19747 15.1863 0.933717 12.0051 0.933717ZM11.496 17.2816H5.02504C4.75011 17.2816 3.76751 17.3223 3.54349 16.8489C3.37548 16.4874 3.66059 15.9426 4.36318 15.2451C6.30293 13.3054 8.32923 11.0602 8.32923 11.0602C8.32923 11.0602 8.67544 10.607 7.97794 10.607H5.22868C4.87703 10.6743 4.51294 10.6184 4.19767 10.4487C3.88241 10.279 3.63521 10.0059 3.49767 9.67534C3.43587 9.4837 3.42118 9.27998 3.45486 9.08145C3.48854 8.88292 3.56959 8.69544 3.69114 8.5349C4.10353 8.02578 4.8723 8.02578 5.2185 8.02578H11.4145C11.6222 8.03166 11.8257 8.08523 12.0093 8.18235C12.1929 8.27946 12.3517 8.4175 12.4735 8.58581C12.6277 8.86877 12.6781 9.19678 12.6158 9.51296C12.5535 9.82915 12.3824 10.1135 12.1324 10.3168C10.1773 12.2769 8.1205 14.4611 8.40052 14.7869C8.41493 14.8017 8.43248 14.813 8.45187 14.8201C8.47126 14.8271 8.49199 14.8297 8.51252 14.8277H11.4603C11.6395 14.7927 11.8242 14.7978 12.0012 14.8426C12.1781 14.8875 12.343 14.9709 12.4839 15.087C12.6248 15.203 12.7383 15.3489 12.8162 15.514C12.8941 15.6791 12.9345 15.8593 12.9345 16.0419C12.9345 16.2245 12.8941 16.4047 12.8162 16.5698C12.7383 16.7349 12.6248 16.8808 12.4839 16.9968C12.343 17.1129 12.1781 17.1963 12.0012 17.2412C11.8242 17.286 11.6395 17.2911 11.4603 17.2562L11.496 17.2816ZM20.3343 16.9761C20.0745 17.2451 19.7286 17.4144 19.3568 17.4547H15.3704C14.9347 17.4487 14.5101 17.316 14.1485 17.0728C13.7869 16.8296 13.5038 16.4865 13.3339 16.0852V11.3453C13.3395 11.1284 13.3953 10.9158 13.4968 10.7241C13.5775 10.5799 13.6846 10.4521 13.8125 10.3474C14.0155 10.2158 14.2393 10.1195 14.4743 10.0623C14.7817 9.99917 15.0987 9.99917 15.406 10.0623C15.5816 10.0869 15.7496 10.1502 15.8977 10.2476C16.0459 10.3451 16.1705 10.4743 16.2626 10.6258C16.3547 10.7773 16.4119 10.9474 16.4302 11.1238C16.4485 11.3002 16.4273 11.4784 16.3683 11.6456L14.8154 13.173H14.1179V14.1912H14.6271V15.6422H19.2092V14.1454H20.0543V13.4988L18.1451 12.0224C18.0483 11.8278 17.9978 11.6135 17.9978 11.3962C17.9978 11.1788 18.0483 10.9645 18.1451 10.77C18.2399 10.6102 18.3673 10.4723 18.5191 10.3653C18.6709 10.2582 18.8436 10.1845 19.0259 10.1488C19.226 10.1189 19.4305 10.1381 19.6216 10.2048C19.8899 10.2233 20.1448 10.3287 20.3479 10.5051C20.5509 10.6815 20.6909 10.9192 20.7467 11.1823V15.9477C20.726 16.3283 20.5708 16.6891 20.3089 16.966L20.3343 16.9761ZM17.0607 11.7016L18.7 13.341L18.7306 14.6749H15.6148V13.2748L17.0607 11.7016Z" fill="#00296B"/>
</svg>
