<svg width="17" height="15" viewBox="0 0 17 15" fill="none" xmlns="http://www.w3.org/2000/svg">
<path d="M11.1857 8.05786L10.5017 7.37491C10.5567 6.60149 10.3185 5.98349 9.78696 5.5209C9.25544 5.05831 8.67919 4.86147 8.05821 4.9304L7.37426 4.26832C7.51278 4.22657 7.66123 4.19874 7.81962 4.18482C7.97868 4.1709 8.13409 4.16394 8.28586 4.16394C9.1282 4.16394 9.83567 4.45058 10.4083 5.02384C10.9815 5.59711 11.2682 6.30458 11.2682 7.14626C11.2682 7.32586 11.2612 7.50215 11.2473 7.67513C11.2334 7.84744 11.2128 7.97501 11.1857 8.05786ZM13.7117 10.5431L13.1113 9.98443C13.5944 9.61131 14.0328 9.19346 14.4265 8.73087C14.8201 8.26828 15.1551 7.74007 15.4315 7.14626C14.7688 5.7797 13.7985 4.70275 12.5208 3.91542C11.2437 3.12875 9.83203 2.73541 8.28586 2.73541C7.89948 2.73541 7.53001 2.7596 7.17743 2.80798C6.82552 2.85636 6.48388 2.92893 6.15251 3.02569L5.46956 2.34175C5.93877 2.17606 6.40799 2.05876 6.87721 1.98983C7.34709 1.92091 7.81664 1.88644 8.28586 1.88644C9.95662 1.88644 11.4995 2.3212 12.9144 3.19071C14.33 4.06089 15.4106 5.22764 16.1562 6.69096C16.1701 6.75989 16.1907 6.83246 16.2178 6.90867C16.2457 6.98488 16.2596 7.06408 16.2596 7.14626C16.2596 7.22977 16.2493 7.30929 16.2288 7.38485C16.2076 7.46106 16.1834 7.53363 16.1562 7.60256C15.852 8.15462 15.4998 8.67586 15.0995 9.16629C14.6992 9.65605 14.2366 10.115 13.7117 10.5431ZM14.2296 14.7064L11.3924 11.8484C11.0332 12.0141 10.5846 12.1556 10.0464 12.2729C9.50762 12.3902 8.92076 12.4488 8.28586 12.4488C6.58793 12.4488 5.04143 12.0068 3.64636 11.1227C2.25196 10.2393 1.17502 9.06588 0.415519 7.60256C0.401601 7.51971 0.38437 7.44383 0.363825 7.37491C0.34328 7.30598 0.333008 7.22977 0.333008 7.14626C0.333008 7.06408 0.339966 6.98124 0.353884 6.89774C0.367801 6.81556 0.395305 6.73967 0.436395 6.67008C0.739929 6.06302 1.12995 5.49008 1.60646 4.95127C2.08297 4.41313 2.58366 3.9575 3.10855 3.58438L1.1611 1.59617C1.065 1.51332 1.01331 1.41325 1.00602 1.29595C0.99939 1.17864 1.04413 1.07857 1.14022 0.995725C1.23698 0.898966 1.33739 0.850586 1.44144 0.850586C1.54482 0.850586 1.6449 0.898966 1.74166 0.995725L14.8301 14.105C14.9268 14.2018 14.9719 14.3055 14.9653 14.4162C14.958 14.5268 14.9129 14.6236 14.8301 14.7064C14.734 14.8025 14.6339 14.8506 14.5298 14.8506C14.4265 14.8506 14.3264 14.8025 14.2296 14.7064ZM3.68812 4.14406C3.2189 4.47543 2.73908 4.91018 2.24865 5.44833C1.75889 5.98713 1.38278 6.55311 1.12034 7.14626C1.78308 8.51349 2.75299 9.5974 4.03009 10.398C5.30718 11.1992 6.72577 11.5999 8.28586 11.5999C8.74182 11.5999 9.21469 11.5584 9.70445 11.4756C10.1949 11.3928 10.5365 11.296 10.7294 11.1853L9.4251 9.92181C9.32834 9.99073 9.15902 10.0424 8.91712 10.0769C8.67588 10.1113 8.46546 10.1286 8.28586 10.1286C7.44352 10.1286 6.73605 9.84228 6.16344 9.26967C5.59017 8.6964 5.30354 7.9886 5.30354 7.14626C5.30354 6.98058 5.32408 6.78739 5.36517 6.5667C5.40693 6.34601 5.46227 6.16673 5.53119 6.02889L3.68812 4.14406Z" fill="#00509D"/>
</svg>
