<svg width="56" height="56" viewBox="0 0 56 56" fill="none" xmlns="http://www.w3.org/2000/svg">
<rect width="56" height="56" rx="4" fill="#D4EEF8"/>
<path d="M34.1771 22C33.7619 22.3665 33.5 22.9027 33.5 23.5C33.5 24.6046 34.3954 25.5 35.5 25.5C35.6726 25.5 36.5 25.5 37 25M22 34C22.781 33.219 22.781 31.781 22 31C21.219 30.219 19.781 30.219 19 31M22 22C22.781 22.781 22.781 24.219 22 25C21.219 25.781 19.781 25.781 19 25M34 34C33.219 33.219 33.219 31.781 34 31C34.781 30.219 36.219 30.219 37 31M22.2 34H33.8C34.9201 34 35.4802 34 35.908 33.782C36.2843 33.5903 36.5903 33.2843 36.782 32.908C37 32.4802 37 31.9201 37 30.8V25.2C37 24.0799 37 23.5198 36.782 23.092C36.5903 22.7157 36.2843 22.4097 35.908 22.218C35.4802 22 34.9201 22 33.8 22H22.2C21.0799 22 20.5198 22 20.092 22.218C19.7157 22.4097 19.4097 22.7157 19.218 23.092C19 23.5198 19 24.0799 19 25.2V30.8C19 31.9201 19 32.4802 19.218 32.908C19.4097 33.2843 19.7157 33.5903 20.092 33.782C20.5198 34 21.0799 34 22.2 34ZM30 28C30 29.1046 29.1046 30 28 30C26.8954 30 26 29.1046 26 28C26 26.8954 26.8954 26 28 26C29.1046 26 30 26.8954 30 28Z" stroke="#19292F" stroke-width="2" stroke-linecap="round" stroke-linejoin="round"/>
</svg>
