<svg width="68" height="57" viewBox="0 0 68 57" fill="none" xmlns="http://www.w3.org/2000/svg">
<path d="M10.6665 56.6667V30H0.666504L33.9998 0L50.6665 14.75V5H57.3332V20.9167L67.3332 30H57.3332V56.6667H38.1665V36.6667H29.8332V56.6667H10.6665ZM15.6665 51.6667H24.8332V31.6667H43.1665V51.6667H52.3332V23.25L33.9998 6.58333L15.6665 23.25V51.6667ZM24.8332 31.6667H33.9998H43.1665H24.8332ZM26.9165 22.5H41.0832C41.0832 20.6667 40.3748 19.1528 38.9582 17.9583C37.5415 16.7639 35.8887 16.1667 33.9998 16.1667C32.1109 16.1667 30.4582 16.7639 29.0415 17.9583C27.6248 19.1528 26.9165 20.6667 26.9165 22.5Z" fill="#00509D"/>
</svg>
