<svg width="80" height="80" viewBox="0 0 80 80" fill="none" xmlns="http://www.w3.org/2000/svg">
<path d="M64.1668 50.4167V23.5833L46.6668 11.3333L29.1668 23.5833V34.3333H24.1668V21.0833L46.6668 5L69.1668 21.0833V50.4167H64.1668ZM48.3335 28.3333H51.6668V25H48.3335V28.3333ZM41.6668 28.3333H45.0002V25H41.6668V28.3333ZM48.3335 35H51.6668V31.6667H48.3335V35ZM41.6668 35H45.0002V31.6667H41.6668V35ZM47.1668 74.8333L21.2502 67.4167V72.1667H3.3335V39.3333H29.0835L50.3335 47.3333C51.8335 47.8889 53.0974 48.7917 54.1252 50.0417C55.1529 51.2917 55.6668 53.0833 55.6668 55.4167H65.1668C67.5002 55.4167 69.4446 56.25 71.0002 57.9167C72.5557 59.5833 73.3335 61.8333 73.3335 64.6667V66.8333L47.1668 74.8333ZM8.3335 67.1667H16.1668V44.3333H8.3335V67.1667ZM46.8335 69.6667L68.1668 63.1667C67.8335 62.1111 67.4168 61.3889 66.9168 61C66.4168 60.6111 65.8335 60.4167 65.1668 60.4167H47.9168C46.2502 60.4167 44.7085 60.3056 43.2918 60.0833C41.8752 59.8611 40.5279 59.5556 39.2502 59.1667L32.5002 57.0833L34.3335 52.25L40.4168 54.25C41.8057 54.6944 43.1252 55 44.3752 55.1667C45.6252 55.3333 47.6113 55.4167 50.3335 55.4167C50.3335 54.75 50.2085 54.0972 49.9585 53.4583C49.7085 52.8194 49.2779 52.3611 48.6668 52.0833L28.2502 44.3333H21.2502V62.1667L46.8335 69.6667Z" fill="#00509D"/>
</svg>
