<svg width="26" height="22" viewBox="0 0 26 22" fill="none" xmlns="http://www.w3.org/2000/svg">
<path fillRule="evenodd" clipRule="evenodd" d="M2.70836 1.88185C4.71782 4.39203 7.984 6.75276 12.8124 7.00694C12.5462 5.91712 12.7076 3.11131 14.8131 1.88185C16.9175 0.652398 19.1658 0.569489 21.2495 2.52767C22.1876 2.39349 23.9385 1.65276 24.3542 1.36149C24.0836 2.38258 23.0015 3.69276 22.2193 4.00367C22.9371 4.00149 24.5156 3.5804 25 3.33058C24.328 4.39203 23.1564 5.40767 22.5149 5.82985C23.4695 14.2353 13.4069 25.2677 1 18.2989C3.71855 18.612 6.57782 17.7044 8.25018 16.2044C6.14145 16.1575 4.15273 15.1157 3.18182 12.9677C4.23782 13.2917 5.31236 13.2229 5.88945 12.7353C4.90545 12.6273 1.68182 11.0804 1.68182 7.75203C2.41491 8.34876 3.33455 8.60403 4.15491 8.4404C2.81309 7.65822 0.980364 4.79458 2.70836 1.88185Z" stroke="white" stroke-linecap="round" strokeLinejoin="round"/>
</svg>
