<svg width="26" height="26" viewBox="0 0 26 26" fill="none" xmlns="http://www.w3.org/2000/svg">
<path fillRule="evenodd" clipRule="evenodd" d="M13 1C6.37287 1 1 6.37287 1 13C1 15.4793 1.75235 17.7823 3.04 19.695L1 25L6.45635 23.0508C8.33983 24.28 10.5843 25 13 25C19.6271 25 25 19.6271 25 13C25 6.37287 19.6271 1 13 1Z" stroke="white" stroke-linecap="round" strokeLinejoin="round"/>
<path fillRule="evenodd" clipRule="evenodd" d="M10.3912 15.6086C11.7498 16.9672 14.7394 18.739 16.1303 18.739C17.5213 18.739 18.739 17.5432 18.739 16.652V15.6086C18.739 15.6086 17.4566 14.9783 16.652 14.5651C15.8475 14.1519 14.5651 15.6086 14.5651 15.6086C14.5651 15.6086 13.098 15.1849 11.9564 14.0434C10.8148 12.9018 10.3912 11.4347 10.3912 11.4347C10.3912 11.4347 11.8479 10.1522 11.4347 9.3477C11.0214 8.54318 10.3912 7.26074 10.3912 7.26074H9.3477C8.45657 7.26074 7.26074 8.47848 7.26074 9.86944C7.26074 11.2604 9.03257 14.25 10.3912 15.6086Z" stroke="white" stroke-linecap="round" strokeLinejoin="round"/>
</svg>
