<svg width="48" height="48" viewBox="0 0 48 48" fill="none" xmlns="http://www.w3.org/2000/svg">
<path d="M24.0102 2.1601e-06C19.2626 -0.00201168 14.621 1.40412 10.6727 4.0405C6.72434 6.67688 3.64662 10.4251 1.82885 14.8109C0.0110884 19.1967 -0.465054 24.0232 0.460667 28.6797C1.38639 33.3362 3.67237 37.6135 7.02944 40.9706C10.3865 44.3276 14.6638 46.6136 19.3203 47.5393C23.9768 48.4651 28.8033 47.9889 33.1891 46.1712C37.5749 44.3534 41.3231 41.2757 43.9595 37.3273C46.5959 33.379 48.002 28.7374 48 23.9898C48 17.6273 45.4725 11.5254 40.9735 7.02646C36.4746 2.5275 30.3727 2.1601e-06 24.0102 2.1601e-06ZM22.9919 32.6958H10.0501C9.50022 32.6958 7.53501 32.7773 7.08699 31.8303C6.75097 31.1073 7.32118 30.0178 8.72636 28.6228C12.6059 24.7433 16.6585 20.2529 16.6585 20.2529C16.6585 20.2529 17.3509 19.3466 15.9559 19.3466H10.4574C9.75406 19.4811 9.02588 19.3693 8.39535 19.0299C7.76482 18.6905 7.27042 18.1444 6.99534 17.4833C6.87173 17.1 6.84236 16.6925 6.90972 16.2955C6.97707 15.8984 7.13918 15.5234 7.38228 15.2024C8.20706 14.1841 9.7446 14.1841 10.437 14.1841H22.829C23.2443 14.1959 23.6513 14.303 24.0186 14.4973C24.3858 14.6915 24.7035 14.9676 24.947 15.3042C25.2555 15.8701 25.3562 16.5261 25.2315 17.1585C25.1069 17.7909 24.7649 18.3597 24.2647 18.7662C20.3547 22.6865 16.241 27.0547 16.801 27.7064C16.8299 27.7359 16.865 27.7586 16.9037 27.7727C16.9425 27.7868 16.984 27.792 17.025 27.7879H22.9207C23.279 27.7179 23.6484 27.7282 24.0023 27.8178C24.3563 27.9075 24.686 28.0744 24.9678 28.3065C25.2496 28.5387 25.4766 28.8303 25.6324 29.1605C25.7882 29.4907 25.869 29.8512 25.869 30.2164C25.869 30.5815 25.7882 30.9421 25.6324 31.2723C25.4766 31.6025 25.2496 31.8941 24.9678 32.1262C24.686 32.3584 24.3563 32.5253 24.0023 32.6149C23.6484 32.7046 23.279 32.7148 22.9207 32.6449L22.9919 32.6958ZM40.6686 32.0849C40.149 32.6227 39.4572 32.9614 38.7136 33.042H30.7408C29.8693 33.03 29.0202 32.7646 28.2969 32.2782C27.5737 31.7918 27.0076 31.1055 26.6678 30.3029V20.8231C26.6791 20.3894 26.7906 19.9642 26.9936 19.5808C27.155 19.2923 27.3692 19.0367 27.625 18.8273C28.031 18.5642 28.4785 18.3715 28.9487 18.2571C29.5634 18.1309 30.1973 18.1309 30.8121 18.2571C31.1633 18.3063 31.4992 18.4329 31.7955 18.6278C32.0917 18.8227 32.341 19.0811 32.5252 19.3842C32.7093 19.6872 32.8239 20.0275 32.8604 20.3802C32.897 20.733 32.8547 21.0895 32.7365 21.4238L29.6309 24.4786H28.2359V26.5151H29.2541V29.4171H38.4183V26.4234H40.1086V25.1302L36.2902 22.1773C36.0965 21.7882 35.9957 21.3595 35.9957 20.9249C35.9957 20.4903 36.0965 20.0616 36.2902 19.6725C36.4798 19.353 36.7347 19.0772 37.0383 18.8631C37.3418 18.6491 37.6872 18.5015 38.0518 18.4302C38.4521 18.3703 38.861 18.4088 39.2431 18.5422C39.7797 18.5792 40.2897 18.79 40.6957 19.1428C41.1018 19.4956 41.3818 19.9711 41.4934 20.4972V30.028C41.452 30.7891 41.1416 31.5108 40.6177 32.0645L40.6686 32.0849ZM34.1213 21.5358L37.4001 24.8146L37.4612 27.4824H31.2295V24.6822L34.1213 21.5358Z" fill="white"/>
</svg>
