<svg width="25" height="25" viewBox="0 0 25 25" fill="none" xmlns="http://www.w3.org/2000/svg">
<path d="M12.7385 0.500001C10.3647 0.498994 8.04391 1.20206 6.06974 2.52025C4.09557 3.83844 2.55671 5.71253 1.64783 7.90545C0.738943 10.0984 0.500871 12.5116 0.963732 14.8398C1.42659 17.1681 2.56958 19.3067 4.24812 20.9853C5.92666 22.6638 8.06532 23.8068 10.3936 24.2697C12.7218 24.7325 15.135 24.4945 17.328 23.5856C19.5209 22.6767 21.395 21.1378 22.7132 19.1637C24.0313 17.1895 24.7344 14.8687 24.7334 12.4949C24.7334 9.31366 23.4697 6.26271 21.2202 4.01323C18.9707 1.76375 15.9197 0.500001 12.7385 0.500001ZM12.2294 16.8479H5.75843C5.48351 16.8479 4.50091 16.8886 4.27689 16.4151C4.10888 16.0537 4.39399 15.5089 5.09658 14.8114C7.03633 12.8716 9.06263 10.6264 9.06263 10.6264C9.06263 10.6264 9.40884 10.1733 8.71134 10.1733H5.96208C5.61043 10.2406 5.24634 10.1846 4.93107 10.015C4.61581 9.84527 4.36861 9.57218 4.23107 9.24163C4.16926 9.04998 4.15458 8.84626 4.18826 8.64773C4.22193 8.44921 4.30299 8.26172 4.42454 8.10118C4.83693 7.59206 5.6057 7.59206 5.9519 7.59206H12.1479C12.3556 7.59794 12.5591 7.65152 12.7427 7.74863C12.9263 7.84574 13.0851 7.98379 13.2069 8.1521C13.3611 8.43505 13.4115 8.76306 13.3492 9.07925C13.2869 9.39543 13.1158 9.67983 12.8658 9.88311C10.9107 11.8432 8.8539 14.0274 9.13391 14.3532C9.14833 14.368 9.16588 14.3793 9.18527 14.3863C9.20466 14.3934 9.22539 14.396 9.24592 14.3939H12.1937C12.3729 14.359 12.5576 14.3641 12.7346 14.4089C12.9115 14.4537 13.0764 14.5372 13.2173 14.6533C13.3582 14.7693 13.4717 14.9151 13.5496 15.0802C13.6275 15.2453 13.6679 15.4256 13.6679 15.6082C13.6679 15.7907 13.6275 15.971 13.5496 16.1361C13.4717 16.3012 13.3582 16.447 13.2173 16.5631C13.0764 16.6792 12.9115 16.7626 12.7346 16.8075C12.5576 16.8523 12.3729 16.8574 12.1937 16.8224L12.2294 16.8479ZM21.0677 16.5424C20.8079 16.8114 20.462 16.9807 20.0902 17.021H16.1038C15.668 17.015 15.2435 16.8823 14.8819 16.6391C14.5203 16.3959 14.2372 16.0528 14.0673 15.6515V10.9115C14.0729 10.6947 14.1287 10.4821 14.2302 10.2904C14.3109 10.1462 14.418 10.0183 14.5459 9.91366C14.7489 9.78212 14.9727 9.68573 15.2077 9.62855C15.5151 9.56545 15.8321 9.56545 16.1394 9.62855C16.315 9.65313 16.483 9.71645 16.6311 9.81391C16.7793 9.91137 16.9039 10.0405 16.996 10.1921C17.0881 10.3436 17.1453 10.5137 17.1636 10.6901C17.1819 10.8665 17.1607 11.0447 17.1017 11.2119L15.5488 12.7393H14.8513V13.7575H15.3605V15.2085H19.9426V13.7117H20.7877V13.0651L18.8785 11.5887C18.7817 11.3941 18.7312 11.1798 18.7312 10.9624C18.7312 10.7451 18.7817 10.5308 18.8785 10.3362C18.9733 10.1765 19.1007 10.0386 19.2525 9.93157C19.4043 9.82453 19.577 9.75077 19.7593 9.71511C19.9594 9.68517 20.1639 9.70439 20.355 9.7711C20.6233 9.7896 20.8782 9.89502 21.0813 10.0714C21.2843 10.2478 21.4243 10.4855 21.4801 10.7486V15.514C21.4594 15.8946 21.3042 16.2554 21.0423 16.5322L21.0677 16.5424ZM17.7941 11.2679L19.4334 12.9073L19.464 14.2412H16.3482V12.8411L17.7941 11.2679Z" fill="#00296B"/>
</svg>
